<?xml version="1.0" encoding="UTF-8"?>
<svg xmlns="http://www.w3.org/2000/svg" xmlns:xlink="http://www.w3.org/1999/xlink" width="16" height="16" viewBox="0 0 16 16" version="1.1">
<path style=" stroke:none;fill-rule:nonzero;fill:rgb(0%,0%,0%);fill-opacity:1;" d="M 7.996094 0.0273438 L 7.996094 0.03125 C 7.976562 0.0585938 7.960938 0.0820312 7.921875 0.0898438 C 7.859375 0.0976562 7.796875 0.0898438 7.765625 0.078125 C 7.746094 0.144531 7.722656 0.171875 7.703125 0.203125 L 8.296875 0.203125 C 8.277344 0.171875 8.253906 0.144531 8.234375 0.078125 C 8.203125 0.0898438 8.140625 0.0976562 8.078125 0.0898438 C 8.039062 0.0820312 8.023438 0.0585938 8.003906 0.03125 L 8.003906 0.0273438 C 8 0.0273438 8 0.0273438 8 0.0273438 C 8 0.0273438 8 0.0273438 7.996094 0.0273438 Z M 7.78125 0.308594 C 7.859375 0.371094 7.910156 0.441406 7.871094 0.554688 L 8.128906 0.554688 C 8.089844 0.441406 8.140625 0.371094 8.21875 0.308594 Z M 7.769531 0.664062 C 7.773438 0.722656 7.753906 0.730469 7.738281 0.753906 C 7.832031 0.777344 7.878906 0.8125 7.886719 0.910156 C 7.800781 0.960938 7.804688 1.058594 7.882812 1.121094 C 7.800781 1.171875 7.800781 1.273438 7.882812 1.332031 C 7.800781 1.382812 7.800781 1.480469 7.882812 1.542969 C 7.796875 1.59375 7.800781 1.695312 7.878906 1.753906 C 7.796875 1.804688 7.796875 1.90625 7.878906 1.964844 C 7.796875 2.019531 7.796875 2.117188 7.878906 2.179688 C 7.792969 2.230469 7.796875 2.328125 7.875 2.390625 C 7.792969 2.441406 7.792969 2.539062 7.875 2.601562 C 7.792969 2.652344 7.792969 2.753906 7.875 2.8125 C 7.789062 2.867188 7.792969 2.964844 7.871094 3.023438 C 7.789062 3.078125 7.789062 3.175781 7.871094 3.234375 C 7.828125 3.28125 7.824219 3.300781 7.820312 3.34375 L 8 3.347656 L 8.179688 3.34375 C 8.175781 3.300781 8.171875 3.28125 8.128906 3.234375 C 8.210938 3.175781 8.210938 3.078125 8.128906 3.023438 C 8.207031 2.964844 8.210938 2.867188 8.125 2.8125 C 8.207031 2.753906 8.207031 2.652344 8.125 2.601562 C 8.207031 2.539062 8.207031 2.441406 8.125 2.390625 C 8.203125 2.328125 8.207031 2.230469 8.121094 2.179688 C 8.203125 2.117188 8.203125 2.019531 8.121094 1.964844 C 8.203125 1.90625 8.203125 1.804688 8.121094 1.753906 C 8.199219 1.695312 8.203125 1.59375 8.117188 1.542969 C 8.199219 1.480469 8.199219 1.382812 8.117188 1.332031 C 8.199219 1.273438 8.199219 1.171875 8.117188 1.121094 C 8.195312 1.058594 8.199219 0.960938 8.113281 0.910156 C 8.121094 0.8125 8.167969 0.777344 8.261719 0.753906 C 8.246094 0.730469 8.226562 0.722656 8.230469 0.664062 Z M 7.648438 2.269531 C 6.421875 2.34375 5.253906 2.824219 4.332031 3.632812 L 4.511719 3.820312 C 5.386719 3.058594 6.488281 2.605469 7.648438 2.53125 Z M 8.351562 2.269531 L 8.351562 2.53125 C 9.511719 2.605469 10.613281 3.058594 11.488281 3.820312 L 11.667969 3.632812 C 10.746094 2.824219 9.578125 2.34375 8.351562 2.269531 Z M 3.121094 2.808594 C 3.113281 2.808594 3.105469 2.8125 3.101562 2.816406 C 3.097656 2.820312 3.09375 2.828125 3.09375 2.835938 L 3.097656 3.121094 C 3.097656 3.136719 3.109375 3.152344 3.128906 3.152344 L 3.414062 3.152344 C 3.417969 3.152344 3.425781 3.148438 3.429688 3.148438 C 3.433594 3.140625 3.4375 3.136719 3.4375 3.128906 L 3.4375 2.84375 C 3.4375 2.824219 3.421875 2.808594 3.40625 2.808594 Z M 12.878906 2.808594 L 12.59375 2.808594 C 12.578125 2.808594 12.5625 2.824219 12.5625 2.84375 L 12.5625 3.128906 C 12.5625 3.136719 12.566406 3.140625 12.570312 3.148438 C 12.574219 3.148438 12.582031 3.152344 12.585938 3.152344 L 12.871094 3.152344 C 12.890625 3.152344 12.902344 3.136719 12.902344 3.121094 L 12.902344 2.835938 C 12.902344 2.828125 12.902344 2.820312 12.898438 2.816406 C 12.890625 2.8125 12.886719 2.808594 12.878906 2.808594 Z M 3.539062 3.09375 L 3.535156 3.25 L 3.378906 3.257812 L 4.773438 4.644531 C 4.800781 4.613281 4.820312 4.585938 4.84375 4.566406 C 4.863281 4.542969 4.890625 4.523438 4.925781 4.496094 Z M 12.460938 3.09375 L 11.074219 4.496094 C 11.109375 4.523438 11.136719 4.542969 11.15625 4.566406 C 11.179688 4.585938 11.199219 4.613281 11.226562 4.644531 L 12.621094 3.257812 L 12.464844 3.25 Z M 7.808594 3.472656 C 7.800781 3.484375 7.792969 3.496094 7.769531 3.503906 C 7.820312 3.519531 7.863281 3.613281 7.824219 3.667969 C 7.773438 3.734375 7.675781 3.679688 7.613281 3.640625 C 7.53125 3.589844 7.492188 3.484375 7.425781 3.496094 C 7.460938 3.539062 7.460938 3.613281 7.421875 3.679688 C 7.410156 3.699219 7.382812 3.699219 7.308594 3.699219 C 7.246094 3.699219 7.195312 3.695312 7.101562 3.71875 C 6.941406 3.757812 6.859375 3.875 6.738281 3.957031 C 6.722656 3.941406 6.742188 3.90625 6.742188 3.855469 C 6.734375 3.769531 6.667969 3.753906 6.589844 3.765625 C 6.519531 3.773438 6.449219 3.8125 6.457031 3.917969 C 6.46875 4.09375 6.582031 4.152344 6.636719 4.152344 C 6.742188 4.15625 6.90625 4.058594 7.003906 3.964844 C 7.046875 3.921875 7.09375 3.878906 7.175781 3.882812 C 7.136719 3.992188 7.167969 4.0625 7.226562 4.109375 C 7.21875 4.097656 7.394531 3.855469 7.589844 3.941406 C 7.855469 4.054688 7.726562 4.328125 7.726562 4.328125 C 7.890625 4.460938 7.949219 4.621094 7.996094 4.789062 C 8 4.796875 8 4.800781 8 4.808594 C 8 4.800781 8.003906 4.789062 8.003906 4.789062 C 8.050781 4.621094 8.109375 4.460938 8.273438 4.328125 C 8.273438 4.328125 8.144531 4.054688 8.410156 3.941406 C 8.605469 3.855469 8.777344 4.097656 8.773438 4.109375 C 8.832031 4.0625 8.863281 3.992188 8.824219 3.882812 C 8.902344 3.878906 8.949219 3.921875 8.996094 3.964844 C 9.09375 4.058594 9.257812 4.15625 9.363281 4.152344 C 9.417969 4.152344 9.53125 4.09375 9.542969 3.917969 C 9.550781 3.8125 9.480469 3.773438 9.410156 3.765625 C 9.332031 3.753906 9.261719 3.769531 9.257812 3.855469 C 9.257812 3.90625 9.277344 3.941406 9.261719 3.957031 C 9.140625 3.875 9.058594 3.757812 8.898438 3.71875 C 8.804688 3.695312 8.753906 3.699219 8.691406 3.699219 C 8.617188 3.699219 8.585938 3.699219 8.578125 3.679688 C 8.539062 3.613281 8.539062 3.539062 8.574219 3.496094 C 8.507812 3.484375 8.46875 3.589844 8.386719 3.640625 C 8.324219 3.679688 8.226562 3.734375 8.175781 3.667969 C 8.136719 3.613281 8.179688 3.519531 8.230469 3.503906 C 8.207031 3.496094 8.199219 3.484375 8.191406 3.472656 Z M 5.953125 4.003906 C 5.683594 4.101562 5.542969 4.210938 5.195312 4.542969 C 5.082031 4.535156 4.980469 4.570312 4.910156 4.632812 C 4.847656 4.703125 4.8125 4.804688 4.820312 4.917969 C 4.488281 5.265625 4.378906 5.40625 4.28125 5.675781 C 4.371094 5.726562 4.398438 5.738281 4.472656 5.753906 C 4.539062 5.601562 4.5625 5.4375 4.960938 5.078125 C 5.132812 5.058594 5.269531 5.105469 5.425781 5.148438 C 5.378906 4.992188 5.335938 4.855469 5.351562 4.683594 C 5.710938 4.285156 5.875 4.261719 6.027344 4.195312 C 6.015625 4.121094 6.003906 4.09375 5.953125 4.003906 Z M 10.046875 4.003906 C 9.996094 4.09375 9.984375 4.121094 9.972656 4.195312 C 10.125 4.261719 10.289062 4.285156 10.648438 4.683594 C 10.664062 4.855469 10.617188 4.992188 10.574219 5.148438 C 10.730469 5.105469 10.867188 5.058594 11.039062 5.078125 C 11.4375 5.4375 11.460938 5.601562 11.527344 5.753906 C 11.601562 5.738281 11.628906 5.726562 11.714844 5.675781 C 11.621094 5.40625 11.511719 5.265625 11.179688 4.917969 C 11.1875 4.804688 11.152344 4.703125 11.089844 4.632812 C 11.019531 4.570312 10.917969 4.535156 10.804688 4.542969 C 10.457031 4.210938 10.316406 4.101562 10.046875 4.003906 Z M 7.46875 4.015625 C 7.449219 4.015625 7.429688 4.015625 7.410156 4.015625 C 7.503906 4.082031 7.496094 4.144531 7.476562 4.203125 C 7.445312 4.308594 7.347656 4.335938 7.273438 4.386719 C 7.34375 4.457031 7.441406 4.472656 7.453125 4.636719 C 7.460938 4.746094 7.394531 4.808594 7.34375 4.882812 C 7.453125 4.953125 7.585938 5.007812 7.585938 5.1875 C 7.589844 5.339844 7.476562 5.398438 7.375 5.46875 C 7.496094 5.511719 7.566406 5.597656 7.570312 5.757812 C 7.570312 5.890625 7.507812 5.96875 7.445312 6.046875 L 7.746094 6.195312 C 7.800781 6.179688 7.855469 6.164062 7.933594 6.175781 L 7.933594 4.863281 C 7.867188 4.652344 7.765625 4.46875 7.570312 4.375 C 7.609375 4.320312 7.65625 4.25 7.644531 4.152344 C 7.628906 4.03125 7.554688 4.015625 7.46875 4.015625 Z M 8.53125 4.015625 C 8.445312 4.015625 8.371094 4.03125 8.355469 4.15625 C 8.34375 4.25 8.390625 4.320312 8.429688 4.375 C 8.234375 4.46875 8.132812 4.652344 8.066406 4.863281 L 8.066406 6.175781 C 8.144531 6.164062 8.199219 6.179688 8.253906 6.195312 L 8.554688 6.046875 C 8.492188 5.96875 8.425781 5.894531 8.429688 5.757812 C 8.433594 5.597656 8.503906 5.511719 8.625 5.46875 C 8.523438 5.398438 8.410156 5.339844 8.414062 5.1875 C 8.414062 5.007812 8.542969 4.953125 8.65625 4.882812 C 8.605469 4.808594 8.539062 4.746094 8.546875 4.636719 C 8.558594 4.472656 8.65625 4.457031 8.726562 4.386719 C 8.652344 4.335938 8.554688 4.308594 8.523438 4.203125 C 8.503906 4.144531 8.496094 4.082031 8.589844 4.015625 C 8.570312 4.015625 8.550781 4.015625 8.53125 4.015625 Z M 3.902344 4.050781 C 3.332031 4.671875 2.914062 5.40625 2.675781 6.203125 L 2.929688 6.269531 C 3.15625 5.519531 3.546875 4.824219 4.085938 4.238281 Z M 12.097656 4.050781 L 11.914062 4.238281 C 12.453125 4.824219 12.84375 5.519531 13.070312 6.269531 L 13.324219 6.203125 C 13.085938 5.40625 12.667969 4.671875 12.097656 4.050781 Z M 5.515625 4.683594 L 5.457031 4.738281 C 5.503906 4.878906 5.546875 5.03125 5.566406 5.203125 C 5.695312 5.09375 5.796875 5.074219 5.910156 5.035156 Z M 10.484375 4.683594 L 10.089844 5.035156 C 10.203125 5.074219 10.304688 5.09375 10.433594 5.203125 C 10.453125 5.03125 10.496094 4.878906 10.542969 4.738281 Z M 5.015625 5.179688 L 4.957031 5.242188 L 5.3125 5.636719 C 5.351562 5.523438 5.367188 5.421875 5.476562 5.292969 C 5.308594 5.269531 5.152344 5.230469 5.015625 5.179688 Z M 10.984375 5.179688 C 10.847656 5.230469 10.691406 5.269531 10.523438 5.292969 C 10.628906 5.421875 10.648438 5.523438 10.6875 5.636719 L 11.039062 5.242188 Z M 5.957031 5.207031 C 5.652344 5.207031 5.402344 5.457031 5.402344 5.761719 C 5.402344 5.820312 5.414062 5.878906 5.429688 5.933594 L 4.835938 6.453125 C 4.769531 6.425781 4.699219 6.414062 4.625 6.414062 C 4.320312 6.414062 4.074219 6.660156 4.074219 6.96875 C 4.074219 7.183594 4.195312 7.367188 4.375 7.460938 L 4.375 8.066406 C 4.195312 8.15625 4.074219 8.34375 4.074219 8.558594 C 4.074219 8.863281 4.320312 9.113281 4.625 9.113281 C 4.699219 9.113281 4.769531 9.101562 4.835938 9.074219 L 5.429688 9.59375 C 5.414062 9.648438 5.402344 9.703125 5.402344 9.761719 C 5.402344 10.070312 5.652344 10.316406 5.957031 10.316406 C 6.242188 10.316406 6.476562 10.097656 6.507812 9.820312 L 7.800781 9.203125 C 7.832031 9.226562 7.953125 9.246094 8 9.246094 C 8.046875 9.246094 8.167969 9.226562 8.199219 9.203125 L 9.492188 9.820312 C 9.519531 10.097656 9.757812 10.316406 10.042969 10.316406 C 10.347656 10.316406 10.597656 10.070312 10.597656 9.761719 C 10.597656 9.703125 10.585938 9.648438 10.570312 9.59375 L 11.164062 9.074219 C 11.230469 9.101562 11.300781 9.113281 11.371094 9.113281 C 11.675781 9.113281 11.925781 8.863281 11.925781 8.558594 C 11.925781 8.34375 11.804688 8.15625 11.625 8.066406 L 11.625 7.460938 C 11.804688 7.367188 11.925781 7.183594 11.925781 6.96875 C 11.925781 6.660156 11.675781 6.414062 11.371094 6.414062 C 11.300781 6.414062 11.230469 6.425781 11.164062 6.453125 L 10.570312 5.933594 C 10.585938 5.878906 10.597656 5.820312 10.597656 5.761719 C 10.597656 5.457031 10.347656 5.207031 10.042969 5.207031 C 9.757812 5.207031 9.519531 5.429688 9.492188 5.707031 L 8.199219 6.324219 C 8.132812 6.300781 8.09375 6.292969 8 6.292969 C 7.90625 6.292969 7.867188 6.300781 7.800781 6.324219 L 6.507812 5.707031 C 6.476562 5.429688 6.242188 5.207031 5.957031 5.207031 Z M 5.957031 5.40625 C 6.15625 5.40625 6.316406 5.5625 6.316406 5.761719 C 6.316406 5.964844 6.15625 6.121094 5.957031 6.121094 C 5.757812 6.121094 5.597656 5.960938 5.597656 5.761719 C 5.597656 5.5625 5.757812 5.40625 5.957031 5.40625 Z M 10.042969 5.40625 C 10.242188 5.40625 10.402344 5.5625 10.402344 5.761719 C 10.402344 5.960938 10.242188 6.121094 10.042969 6.121094 C 9.84375 6.121094 9.683594 5.960938 9.683594 5.761719 C 9.683594 5.5625 9.84375 5.40625 10.042969 5.40625 Z M 3.667969 5.539062 C 3.488281 5.757812 3.425781 5.925781 3.300781 6.390625 C 3.199219 6.445312 3.132812 6.527344 3.105469 6.617188 C 3.089844 6.710938 3.113281 6.816406 3.175781 6.910156 C 3.078125 7.378906 3.058594 7.558594 3.117188 7.835938 C 3.214844 7.835938 3.246094 7.832031 3.316406 7.800781 C 3.292969 7.636719 3.226562 7.484375 3.378906 6.972656 C 3.515625 6.867188 3.660156 6.832031 3.8125 6.789062 C 3.695312 6.679688 3.585938 6.585938 3.511719 6.429688 C 3.609375 5.902344 3.738281 5.796875 3.832031 5.660156 C 3.78125 5.601562 3.757812 5.585938 3.667969 5.539062 Z M 12.332031 5.539062 C 12.242188 5.585938 12.21875 5.601562 12.167969 5.660156 C 12.261719 5.796875 12.390625 5.902344 12.488281 6.429688 C 12.414062 6.585938 12.304688 6.679688 12.1875 6.789062 C 12.339844 6.832031 12.484375 6.867188 12.621094 6.972656 C 12.773438 7.484375 12.703125 7.636719 12.679688 7.800781 C 12.753906 7.832031 12.785156 7.835938 12.882812 7.835938 C 12.941406 7.558594 12.921875 7.378906 12.824219 6.910156 C 12.886719 6.816406 12.910156 6.710938 12.894531 6.617188 C 12.867188 6.527344 12.796875 6.445312 12.699219 6.390625 C 12.574219 5.925781 12.511719 5.757812 12.332031 5.539062 Z M 0.894531 5.847656 C 0.886719 5.847656 0.878906 5.851562 0.875 5.851562 L 0.632812 6 C 0.625 6.003906 0.621094 6.011719 0.617188 6.015625 C 0.617188 6.023438 0.617188 6.03125 0.621094 6.035156 L 0.773438 6.28125 C 0.78125 6.296875 0.800781 6.300781 0.816406 6.289062 L 1.058594 6.140625 C 1.0625 6.136719 1.070312 6.132812 1.070312 6.125 C 1.070312 6.121094 1.070312 6.113281 1.066406 6.109375 L 0.917969 5.863281 C 0.914062 5.855469 0.902344 5.847656 0.894531 5.847656 Z M 15.105469 5.847656 C 15.097656 5.847656 15.085938 5.855469 15.082031 5.863281 L 14.933594 6.109375 C 14.929688 6.113281 14.929688 6.121094 14.929688 6.125 C 14.929688 6.132812 14.933594 6.136719 14.941406 6.140625 L 15.183594 6.289062 C 15.199219 6.300781 15.21875 6.296875 15.226562 6.28125 L 15.375 6.035156 C 15.378906 6.03125 15.382812 6.023438 15.382812 6.015625 C 15.378906 6.011719 15.375 6.003906 15.367188 6 L 15.125 5.851562 C 15.121094 5.851562 15.113281 5.847656 15.105469 5.847656 Z M 6.488281 5.917969 C 6.992188 6.140625 7.496094 6.359375 8 6.578125 C 8 6.578125 8 6.578125 8.003906 6.578125 C 8.507812 6.359375 9.007812 6.140625 9.511719 5.917969 C 9.527344 5.976562 9.554688 6.027344 9.585938 6.074219 C 9.585938 6.078125 9.59375 6.082031 9.59375 6.085938 C 9.152344 6.277344 8.714844 6.472656 8.277344 6.664062 C 8.230469 6.628906 8.175781 6.605469 8.117188 6.589844 C 8.078125 6.582031 8.039062 6.578125 8 6.578125 C 7.953125 6.578125 7.902344 6.585938 7.859375 6.597656 C 7.808594 6.613281 7.761719 6.632812 7.722656 6.664062 L 6.40625 6.085938 C 6.433594 6.050781 6.453125 6.011719 6.46875 5.972656 C 6.476562 5.953125 6.480469 5.9375 6.488281 5.917969 Z M 1.136719 6.023438 L 1.214844 6.160156 L 1.085938 6.246094 L 2.996094 6.703125 C 3 6.660156 3.007812 6.625 3.011719 6.597656 C 3.019531 6.566406 3.03125 6.535156 3.046875 6.492188 Z M 14.863281 6.023438 L 12.953125 6.492188 C 12.96875 6.535156 12.976562 6.566406 12.984375 6.597656 C 12.992188 6.625 12.996094 6.660156 13.003906 6.703125 L 14.914062 6.246094 L 14.785156 6.160156 Z M 5.488281 6.054688 C 5.519531 6.105469 5.558594 6.152344 5.605469 6.191406 L 5.09375 6.671875 C 5.058594 6.613281 5.007812 6.5625 4.953125 6.519531 C 5.132812 6.367188 5.308594 6.210938 5.488281 6.054688 Z M 10.511719 6.054688 C 10.691406 6.210938 10.867188 6.367188 11.042969 6.519531 C 10.988281 6.5625 10.941406 6.613281 10.90625 6.671875 L 10.394531 6.191406 C 10.441406 6.152344 10.480469 6.105469 10.511719 6.054688 Z M 6.398438 6.09375 C 6.753906 6.445312 7.105469 6.796875 7.457031 7.144531 C 7.449219 7.195312 7.449219 7.242188 7.457031 7.292969 C 7.46875 7.390625 7.511719 7.488281 7.574219 7.566406 C 7.640625 7.652344 7.738281 7.71875 7.84375 7.75 C 7.859375 7.753906 7.878906 7.761719 7.894531 7.761719 C 7.796875 7.78125 7.707031 7.828125 7.632812 7.894531 C 7.570312 7.953125 7.519531 8.023438 7.492188 8.101562 C 7.460938 8.179688 7.445312 8.261719 7.453125 8.347656 C 7.453125 8.359375 7.453125 8.371094 7.457031 8.382812 L 6.398438 9.433594 C 6.367188 9.386719 6.324219 9.34375 6.277344 9.3125 C 6.632812 8.953125 6.992188 8.59375 7.347656 8.238281 C 7.308594 8.183594 7.277344 8.125 7.25 8.0625 C 7.246094 8.046875 7.238281 8.03125 7.234375 8.015625 C 7.015625 8.066406 6.800781 8.121094 6.585938 8.171875 C 6.605469 8.273438 6.648438 8.367188 6.699219 8.457031 C 6.742188 8.53125 6.789062 8.601562 6.832031 8.671875 C 6.566406 8.570312 6.304688 8.449219 6.058594 8.300781 C 5.765625 8.371094 5.472656 8.441406 5.175781 8.511719 C 5.171875 8.453125 5.15625 8.394531 5.132812 8.339844 L 5.851562 8.160156 C 5.6875 8.042969 5.535156 7.910156 5.398438 7.761719 C 5.535156 7.617188 5.6875 7.484375 5.851562 7.363281 C 5.613281 7.304688 5.371094 7.246094 5.132812 7.1875 C 5.15625 7.132812 5.171875 7.074219 5.175781 7.011719 C 5.472656 7.085938 5.765625 7.15625 6.058594 7.226562 C 6.304688 7.078125 6.566406 6.957031 6.832031 6.855469 C 6.761719 6.96875 6.6875 7.078125 6.632812 7.203125 C 6.613281 7.25 6.597656 7.300781 6.585938 7.355469 L 7.234375 7.511719 C 7.257812 7.441406 7.289062 7.375 7.332031 7.316406 C 7.335938 7.308594 7.34375 7.296875 7.347656 7.289062 C 6.992188 6.933594 6.632812 6.574219 6.277344 6.214844 C 6.324219 6.179688 6.367188 6.140625 6.398438 6.09375 Z M 9.597656 6.09375 C 9.632812 6.140625 9.675781 6.179688 9.722656 6.214844 L 8.648438 7.289062 C 8.691406 7.34375 8.722656 7.402344 8.746094 7.464844 C 8.753906 7.480469 8.757812 7.496094 8.765625 7.511719 C 8.980469 7.460938 9.199219 7.40625 9.414062 7.355469 C 9.390625 7.253906 9.347656 7.15625 9.296875 7.066406 C 9.257812 6.996094 9.210938 6.925781 9.164062 6.855469 C 9.433594 6.957031 9.695312 7.078125 9.941406 7.226562 C 10.234375 7.15625 10.527344 7.085938 10.820312 7.011719 C 10.828125 7.074219 10.839844 7.132812 10.867188 7.1875 C 10.625 7.246094 10.386719 7.304688 10.148438 7.363281 C 10.308594 7.484375 10.464844 7.617188 10.601562 7.761719 C 10.464844 7.910156 10.308594 8.042969 10.148438 8.160156 C 10.386719 8.222656 10.625 8.28125 10.867188 8.339844 C 10.839844 8.394531 10.828125 8.453125 10.820312 8.511719 C 10.527344 8.441406 10.234375 8.371094 9.941406 8.300781 C 9.695312 8.449219 9.433594 8.570312 9.164062 8.671875 C 9.238281 8.558594 9.3125 8.449219 9.363281 8.324219 C 9.386719 8.277344 9.402344 8.226562 9.414062 8.171875 L 8.765625 8.015625 C 8.738281 8.082031 8.710938 8.152344 8.667969 8.210938 C 8.660156 8.21875 8.65625 8.226562 8.648438 8.238281 C 9.007812 8.59375 9.363281 8.953125 9.722656 9.3125 C 9.675781 9.34375 9.632812 9.386719 9.597656 9.433594 C 9.246094 9.082031 8.894531 8.730469 8.542969 8.382812 C 8.550781 8.332031 8.550781 8.285156 8.542969 8.234375 C 8.53125 8.136719 8.488281 8.039062 8.425781 7.960938 C 8.355469 7.875 8.261719 7.808594 8.15625 7.777344 C 8.136719 7.769531 8.121094 7.765625 8.105469 7.761719 C 8.203125 7.742188 8.292969 7.699219 8.367188 7.628906 C 8.429688 7.574219 8.476562 7.503906 8.507812 7.425781 C 8.539062 7.347656 8.550781 7.265625 8.546875 7.183594 C 8.546875 7.171875 8.542969 7.15625 8.542969 7.144531 C 8.894531 6.796875 9.246094 6.445312 9.597656 6.09375 Z M 3.648438 6.34375 L 3.625 6.421875 C 3.742188 6.515625 3.855469 6.625 3.960938 6.761719 C 4.015625 6.601562 4.09375 6.53125 4.167969 6.441406 Z M 12.351562 6.34375 L 11.832031 6.441406 C 11.90625 6.53125 11.984375 6.601562 12.035156 6.761719 C 12.144531 6.625 12.257812 6.515625 12.371094 6.421875 Z M 4.625 6.609375 C 4.824219 6.609375 4.984375 6.769531 4.984375 6.96875 C 4.984375 7.167969 4.824219 7.328125 4.625 7.328125 C 4.425781 7.328125 4.269531 7.167969 4.269531 6.96875 C 4.269531 6.769531 4.425781 6.609375 4.625 6.609375 Z M 11.371094 6.609375 C 11.570312 6.609375 11.730469 6.769531 11.730469 6.96875 C 11.730469 7.167969 11.570312 7.328125 11.371094 7.328125 C 11.175781 7.328125 11.015625 7.167969 11.015625 6.96875 C 11.015625 6.769531 11.175781 6.609375 11.371094 6.609375 Z M 2.53125 6.8125 C 2.476562 7.125 2.449219 7.445312 2.449219 7.765625 C 2.449219 8.046875 2.46875 8.324219 2.511719 8.597656 L 2.761719 8.5 C 2.726562 8.257812 2.710938 8.015625 2.710938 7.765625 C 2.710938 7.460938 2.738281 7.152344 2.789062 6.855469 Z M 13.464844 6.8125 L 13.210938 6.855469 C 13.261719 7.152344 13.289062 7.460938 13.289062 7.765625 C 13.289062 8.015625 13.273438 8.257812 13.238281 8.5 L 13.488281 8.597656 C 13.527344 8.324219 13.550781 8.046875 13.550781 7.765625 C 13.550781 7.445312 13.523438 7.125 13.464844 6.8125 Z M 8 6.859375 C 8.195312 6.863281 8.351562 7.023438 8.351562 7.21875 C 8.351562 7.414062 8.195312 7.570312 8 7.574219 C 7.804688 7.570312 7.648438 7.414062 7.648438 7.21875 C 7.648438 7.023438 7.804688 6.863281 8 6.859375 Z M 3.933594 6.882812 C 3.777344 6.953125 3.625 7 3.480469 7.03125 L 3.464844 7.113281 L 3.96875 7.261719 C 3.945312 7.148438 3.90625 7.050781 3.933594 6.882812 Z M 12.066406 6.882812 C 12.089844 7.050781 12.054688 7.148438 12.027344 7.261719 L 12.535156 7.113281 L 12.519531 7.03125 C 12.375 7 12.222656 6.953125 12.066406 6.882812 Z M 4.503906 7.507812 C 4.542969 7.519531 4.585938 7.523438 4.625 7.523438 C 4.652344 7.523438 4.679688 7.519531 4.707031 7.515625 L 4.707031 8.011719 C 4.679688 8.007812 4.652344 8.003906 4.625 8.003906 C 4.585938 8.003906 4.542969 8.007812 4.503906 8.019531 Z M 11.492188 7.507812 L 11.492188 8.019531 C 11.453125 8.007812 11.414062 8.003906 11.371094 8.003906 C 11.34375 8.003906 11.320312 8.007812 11.292969 8.011719 L 11.292969 7.515625 C 11.320312 7.519531 11.34375 7.523438 11.371094 7.523438 C 11.414062 7.523438 11.453125 7.519531 11.492188 7.507812 Z M 6.539062 7.535156 C 6.527344 7.601562 6.519531 7.679688 6.523438 7.761719 C 6.519531 7.847656 6.527344 7.921875 6.539062 7.992188 L 7.195312 7.839844 C 7.191406 7.816406 7.1875 7.785156 7.1875 7.761719 C 7.1875 7.738281 7.191406 7.710938 7.195312 7.6875 Z M 9.460938 7.535156 L 8.804688 7.6875 C 8.804688 7.710938 8.8125 7.738281 8.8125 7.761719 C 8.8125 7.785156 8.804688 7.816406 8.804688 7.839844 L 9.460938 7.992188 C 9.472656 7.921875 9.480469 7.847656 9.476562 7.761719 C 9.480469 7.679688 9.472656 7.601562 9.460938 7.535156 Z M 8 7.945312 C 8.195312 7.949219 8.351562 8.109375 8.351562 8.308594 C 8.351562 8.503906 8.195312 8.65625 8 8.664062 C 7.804688 8.65625 7.648438 8.503906 7.648438 8.308594 C 7.648438 8.109375 7.804688 7.949219 8 7.945312 Z M 4.625 8.199219 C 4.824219 8.199219 4.984375 8.359375 4.984375 8.558594 C 4.984375 8.757812 4.824219 8.917969 4.625 8.917969 C 4.425781 8.917969 4.269531 8.757812 4.269531 8.558594 C 4.269531 8.359375 4.425781 8.199219 4.625 8.199219 Z M 11.371094 8.199219 C 11.570312 8.199219 11.730469 8.359375 11.730469 8.558594 C 11.730469 8.757812 11.570312 8.917969 11.371094 8.917969 C 11.175781 8.917969 11.015625 8.757812 11.015625 8.558594 C 11.015625 8.359375 11.175781 8.199219 11.371094 8.199219 Z M 4.027344 8.339844 C 4.027344 8.339844 3.289062 8.503906 2.925781 8.628906 C 2.378906 8.824219 1.320312 9.3125 1.320312 9.3125 L 4 8.679688 C 3.988281 8.566406 3.957031 8.445312 4.027344 8.339844 Z M 11.972656 8.339844 C 12.039062 8.445312 12.011719 8.566406 12 8.679688 L 14.679688 9.3125 C 14.679688 9.3125 13.621094 8.824219 13.070312 8.628906 C 12.710938 8.503906 11.972656 8.339844 11.972656 8.339844 Z M 4.023438 8.78125 L 1.351562 9.4375 C 1.351562 9.4375 2.515625 9.394531 3.089844 9.3125 C 3.46875 9.261719 4.199219 9.070312 4.199219 9.070312 C 4.09375 9.007812 4.066406 8.886719 4.023438 8.78125 Z M 11.976562 8.78125 C 11.933594 8.886719 11.90625 9.007812 11.796875 9.070312 C 11.796875 9.070312 12.527344 9.261719 12.90625 9.3125 C 13.484375 9.394531 14.648438 9.4375 14.648438 9.4375 Z M 5.09375 8.855469 L 5.605469 9.335938 C 5.558594 9.375 5.519531 9.417969 5.488281 9.472656 C 5.308594 9.316406 5.132812 9.160156 4.953125 9.003906 C 5.007812 8.964844 5.058594 8.914062 5.09375 8.855469 Z M 10.90625 8.855469 C 10.941406 8.914062 10.988281 8.964844 11.042969 9.003906 C 10.867188 9.160156 10.691406 9.316406 10.511719 9.472656 C 10.480469 9.417969 10.441406 9.375 10.390625 9.335938 Z M 7.722656 8.859375 C 7.808594 8.925781 7.902344 8.941406 8 8.941406 C 8.09375 8.941406 8.191406 8.925781 8.277344 8.859375 L 9.59375 9.441406 C 9.589844 9.449219 9.585938 9.449219 9.582031 9.457031 C 9.578125 9.464844 9.574219 9.46875 9.570312 9.476562 C 9.566406 9.484375 9.5625 9.488281 9.558594 9.496094 C 9.558594 9.496094 9.558594 9.496094 9.558594 9.5 C 9.554688 9.503906 9.550781 9.511719 9.546875 9.515625 C 9.546875 9.515625 9.546875 9.519531 9.546875 9.519531 C 9.542969 9.523438 9.542969 9.53125 9.539062 9.535156 C 9.539062 9.539062 9.535156 9.539062 9.535156 9.542969 C 9.535156 9.546875 9.53125 9.550781 9.53125 9.558594 C 9.527344 9.558594 9.527344 9.5625 9.527344 9.5625 C 9.523438 9.570312 9.523438 9.574219 9.519531 9.582031 C 9.519531 9.582031 9.519531 9.582031 9.519531 9.585938 C 9.515625 9.59375 9.515625 9.597656 9.511719 9.605469 L 8 8.945312 L 8 8.941406 L 8 8.945312 L 6.488281 9.605469 C 6.484375 9.597656 6.480469 9.59375 6.480469 9.585938 C 6.480469 9.582031 6.480469 9.582031 6.476562 9.582031 C 6.476562 9.574219 6.472656 9.570312 6.472656 9.5625 C 6.472656 9.5625 6.46875 9.558594 6.46875 9.558594 C 6.46875 9.550781 6.464844 9.546875 6.460938 9.542969 C 6.460938 9.539062 6.460938 9.539062 6.460938 9.535156 C 6.457031 9.53125 6.453125 9.523438 6.453125 9.519531 C 6.453125 9.519531 6.453125 9.515625 6.449219 9.515625 C 6.449219 9.511719 6.445312 9.503906 6.441406 9.5 C 6.441406 9.496094 6.441406 9.496094 6.441406 9.496094 C 6.4375 9.488281 6.433594 9.484375 6.429688 9.476562 C 6.425781 9.46875 6.421875 9.464844 6.417969 9.457031 C 6.417969 9.457031 6.417969 9.457031 6.414062 9.457031 C 6.410156 9.449219 6.410156 9.449219 6.40625 9.441406 Z M 7.78125 9.34375 L 7.585938 9.433594 L 7.589844 15.023438 C 7.667969 15.371094 7.785156 15.714844 7.925781 16.027344 L 7.925781 9.34375 Z M 8.070312 9.34375 L 8.070312 16.027344 C 8.210938 15.714844 8.328125 15.371094 8.410156 15.023438 L 8.414062 9.433594 L 8.21875 9.34375 Z M 5.957031 9.40625 C 6.15625 9.40625 6.3125 9.5625 6.3125 9.761719 C 6.3125 9.960938 6.15625 10.121094 5.957031 10.121094 C 5.757812 10.121094 5.597656 9.960938 5.597656 9.761719 C 5.597656 9.5625 5.757812 9.40625 5.957031 9.40625 Z M 10.042969 9.40625 C 10.242188 9.40625 10.398438 9.5625 10.398438 9.761719 C 10.398438 9.960938 10.242188 10.121094 10.042969 10.121094 C 9.84375 10.121094 9.683594 9.960938 9.683594 9.761719 C 9.683594 9.5625 9.84375 9.40625 10.042969 9.40625 Z M 3 9.484375 L 2.738281 9.523438 C 2.96875 10.207031 3.335938 10.84375 3.816406 11.390625 L 3.96875 11.167969 C 3.542969 10.667969 3.214844 10.097656 3 9.484375 Z M 13 9.484375 C 12.785156 10.097656 12.457031 10.667969 12.03125 11.167969 L 12.179688 11.390625 C 12.664062 10.84375 13.03125 10.207031 13.261719 9.523438 Z M 5.328125 9.894531 C 5.328125 9.894531 4.785156 10.421875 4.542969 10.71875 C 4.171875 11.167969 3.527344 12.140625 3.527344 12.140625 L 5.480469 10.199219 C 5.414062 10.105469 5.324219 10.019531 5.328125 9.894531 Z M 10.671875 9.894531 C 10.675781 10.019531 10.585938 10.105469 10.519531 10.199219 L 12.472656 12.140625 C 12.472656 12.140625 11.824219 11.167969 11.457031 10.71875 C 11.214844 10.421875 10.671875 9.894531 10.671875 9.894531 Z M 5.550781 10.269531 L 3.617188 12.230469 C 3.617188 12.230469 4.585938 11.582031 5.035156 11.210938 C 5.328125 10.96875 5.851562 10.421875 5.851562 10.421875 C 5.730469 10.425781 5.644531 10.335938 5.550781 10.269531 Z M 10.449219 10.269531 C 10.355469 10.335938 10.269531 10.425781 10.144531 10.421875 C 10.144531 10.421875 10.667969 10.96875 10.964844 11.210938 C 11.414062 11.582031 12.382812 12.230469 12.382812 12.230469 Z M 4.5625 11.757812 L 4.339844 11.914062 C 5.207031 12.664062 6.28125 13.128906 7.421875 13.246094 L 7.421875 12.984375 C 6.367188 12.871094 5.371094 12.445312 4.5625 11.757812 Z M 11.433594 11.757812 C 10.628906 12.445312 9.632812 12.871094 8.578125 12.984375 L 8.578125 13.246094 C 9.714844 13.128906 10.792969 12.664062 11.65625 11.914062 Z M 11.433594 11.757812 "/>
</svg>
