<?xml version="1.0" encoding="UTF-8" standalone="no"?>
<svg
   viewBox="0 0 2610.43 952.57"
   version="1.1"
   id="svg5428"
   xmlns="http://www.w3.org/2000/svg"
   xmlns:svg="http://www.w3.org/2000/svg"
   xmlns:rdf="http://www.w3.org/1999/02/22-rdf-syntax-ns#"
   xmlns:cc="http://creativecommons.org/ns#"
   xmlns:dc="http://purl.org/dc/elements/1.1/">
  <metadata
     id="metadata5432">
    <rdf:RDF>
      <cc:Work
         rdf:about="">
        <dc:format>image/svg+xml</dc:format>
        <dc:type
           rdf:resource="http://purl.org/dc/dcmitype/StillImage" />
      </cc:Work>
    </rdf:RDF>
  </metadata>
  <defs
     id="defs5332">
    <style
       id="style5330">.cls-1,.cls-2{fill:#0d5b90;}.cls-2{opacity:0.98;isolation:isolate;}.cls-3{fill:#0c5587;}.cls-4{fill:#ffb25b;}.cls-5{fill:#3e7fa5;}</style>
  </defs>
  <g
     id="Capa_2"
     data-name="Capa 2">
    <g
       id="Capa_1-2"
       data-name="Capa 1">
      <path
         class="cls-1"
         d="m 1205.75,765.87 c -5.76,-2.47 -7,-4.12 -7,-11.94 0,-18.92 1.65,-40.73 2.06,-46.49 0,-5.35 1.65,-9.06 4.53,-9.06 3.29,0 3.7,3.3 3.7,5.76 a 65,65 0 0 0 3.29,18.11 c 7.82,25.92 35,34.56 57.61,34.56 31.27,0 50.2,-19.75 50.2,-44.44 0,-15.22 -3.7,-30.45 -35.8,-49.37 l -21,-12.35 c -42.8,-25.1 -56.79,-48.55 -56.79,-79.42 0,-42.79 41.15,-70.36 91.35,-70.36 23.45,0 42,3.29 51.44,5.76 3.29,0.82 4.93,2.06 4.93,4.53 0,4.52 -1.23,14.4 -1.23,42 0,7.41 -1.64,11.11 -4.53,11.11 q -3.71,0 -3.7,-6.17 c 0,-3.29 -1.64,-14 -9.46,-23.05 -5.35,-6.58 -16.87,-16.46 -40.33,-16.46 -25.92,0 -49.38,13.58 -49.38,37.45 0,15.64 5.76,28 38.27,46.09 l 14.82,8.23 c 47.73,26.33 62.54,53.08 62.54,84.76 0,25.93 -9.87,46.91 -36.21,65.43 -17.28,12.34 -41.15,14.4 -60.49,14.4 -20.96,-0.03 -43.18,-2.09 -58.82,-9.08 z"
         id="path5334"
         style="fill:#004976;fill-opacity:1" />
      <path
         class="cls-1"
         d="m 1617.1,619.79 c 0.83,0 2.06,-0.41 2.06,-2.47 v -7.41 c 0,-53.08 -0.41,-65.83 -0.82,-76.94 -0.83,-11.94 -4.12,-15.64 -15.64,-18.93 -2.88,-0.82 -9,-1.24 -14,-1.24 q -6.17,0 -6.17,-3.7 c 0,-2.47 2.47,-3.29 7.82,-3.29 19.34,0 44.85,0.82 54.31,0.82 8.64,0 32.51,-0.82 46.5,-0.82 5.35,0 7.82,0.82 7.82,3.29 0,2.47 -2.47,3.7 -6.59,3.7 a 60.94,60.94 0 0 0 -10.69,1.24 c -9.47,1.64 -12.35,6.58 -13.17,18.93 -0.82,11.11 -0.82,21 -0.82,74.06 v 61.73 c 0,32.09 0,59.66 1.64,74.89 1.24,9.87 3.29,16.46 14.4,18.1 a 131.6,131.6 0 0 0 18.52,1.24 c 3.7,0 5.76,2 5.76,3.7 0,2.47 -2.88,3.7 -7.41,3.7 -23.45,0 -47.32,-1.23 -57.19,-1.23 -8.23,0 -33.74,1.23 -47.73,1.23 -4.94,0 -7.82,-1.23 -7.82,-3.7 0,-1.65 1.64,-3.7 5.76,-3.7 a 54.91,54.91 0 0 0 13.17,-1.24 c 7.4,-1.64 9.46,-8.23 10.69,-18.51 1.65,-14.82 1.65,-41.56 1.65,-73.66 v -26.75 a 2.2,2.2 0 0 0 -2.06,-2.05 h -136.6 c -1.23,0 -2.47,0.41 -2.47,2.05 v 26.75 c 0,32.1 0.41,58.84 2.06,74.07 1.23,9.87 3.29,16.46 14,18.1 a 136,136 0 0 0 18.52,1.24 c 4.11,0 5.76,2 5.76,3.7 0,2.47 -2.88,3.7 -7.41,3.7 -23.45,0 -48.55,-1.23 -58.84,-1.23 -8.23,0 -32.1,1.23 -46.5,1.23 -4.53,0 -7,-1.23 -7,-3.7 0,-1.65 1.23,-3.7 5.76,-3.7 a 53.34,53.34 0 0 0 12.75,-1.24 c 7.41,-1.64 9.47,-8.23 10.7,-18.51 1.65,-14.82 1.65,-42.39 1.65,-74.48 V 607 c 0,-53.08 0,-62.95 -0.41,-74.06 -0.83,-11.94 -4.12,-15.64 -15.64,-18.93 -2.88,-0.82 -9.05,-1.24 -14.4,-1.24 -3.71,0 -6.18,-1.23 -6.18,-3.7 0,-2.47 2.88,-3.29 7.82,-3.29 19.34,0 43.21,0.82 53.08,0.82 8.65,0 33.75,-0.82 48.15,-0.82 4.94,0 7.4,0.82 7.4,3.29 0,2.47 -2,3.7 -6.58,3.7 a 53.41,53.41 0 0 0 -10.29,1.24 c -9.87,1.64 -12.75,6.58 -13.58,18.93 -0.82,11.11 -0.82,23.86 -0.82,76.94 v 7.41 a 2.17,2.17 0 0 0 2.47,2.47 z"
         id="path5336"
         style="fill:#004976;fill-opacity:1" />
      <path
         class="cls-1"
         d="m 1811.89,681.92 c -2.05,0 -2.47,0.42 -3.29,2.47 l -19.34,47.32 c -3.7,8.64 -5.35,17.29 -5.35,21.4 0,6.17 3.29,9.88 14.41,9.88 h 5.34 c 4.53,0 5.35,1.64 5.35,3.7 0,2.88 -2.06,3.7 -5.76,3.7 -11.93,0 -28.8,-1.23 -40.32,-1.23 -3.71,0 -23,1.23 -42,1.23 -4.53,0 -6.59,-0.82 -6.59,-3.7 0,-2.06 1.24,-3.7 4.12,-3.7 3.29,0 7.4,-0.42 10.7,-0.42 16.46,-2.46 22.63,-13.16 30,-30.86 l 94.64,-218.49 c 4.12,-9.88 7,-14 10.7,-14 5.35,0 7,3.3 10.7,11.12 8.64,19.33 69.13,160.89 92.17,214 14,31.68 24.28,36.21 30.87,37.44 a 87.52,87.52 0 0 0 13.57,1.24 c 3.3,0 4.94,1.23 4.94,3.7 0,2.88 -2,3.7 -15.63,3.7 -12.76,0 -39.09,0 -69.54,-0.82 -6.59,-0.41 -10.7,-0.41 -10.7,-2.88 0,-2.06 0.82,-3.29 4.52,-3.7 2.47,-0.42 4.94,-3.71 3.29,-7.82 l -28,-70.78 a 3.44,3.44 0 0 0 -3.7,-2.47 z m 77.36,-19.34 c 1.65,0 2.06,-0.82 1.65,-2.05 l -34.15,-87.65 c -0.42,-1.23 -0.83,-3.29 -1.65,-3.29 -1.24,0 -1.64,2.06 -2.06,3.29 l -35,87.24 c -0.83,1.64 0,2.46 1.23,2.46 z"
         id="path5338"
         style="fill:#004976;fill-opacity:1" />
      <path
         class="cls-1"
         d="m 2056.32,607 c 0,-53.08 0,-62.95 -0.41,-74.06 -0.82,-11.94 -4.11,-15.64 -15.63,-18.93 -2.88,-0.82 -9.06,-1.24 -14.41,-1.24 -3.7,0 -6.17,-1.23 -6.17,-3.7 0,-2.47 2.88,-3.29 8.23,-3.29 18.93,0 42,0.82 49.38,0.82 12.34,0 45.26,-0.82 56.37,-0.82 23.05,0 49.38,2.06 68.72,14.81 10.29,7 25.51,24.69 25.51,48.15 0,25.92 -14.81,49 -50.2,77.35 32.1,39.51 57.61,71.19 79.42,93 20.16,20.16 32.92,21.81 38.68,23 a 33.52,33.52 0 0 0 8.64,0.83 c 2.88,0 4.52,2 4.52,3.7 0,2.88 -2.46,3.7 -7,3.7 h -34.56 c -20.17,0 -30,-2 -39.51,-7 -15.63,-7.82 -29.21,-24.28 -49.38,-51.44 -14.4,-18.93 -29.62,-42.38 -34.15,-47.73 a 8.32,8.32 0 0 0 -6.58,-2.47 l -32.51,-0.82 a 2.6,2.6 0 0 0 -2.88,2.88 v 4.94 c 0,32.5 0.41,59.66 2.06,74.48 1.23,10.28 2.88,16.87 14,18.51 a 137.88,137.88 0 0 0 17.69,1.24 c 2.88,0 4.53,2 4.53,3.7 0,2.47 -2.88,3.7 -7.41,3.7 -21,0 -51,-1.23 -56.37,-1.23 -7,0 -30,1.23 -44.44,1.23 -4.53,0 -7,-1.23 -7,-3.7 0,-1.65 1.24,-3.7 5.76,-3.7 a 53.43,53.43 0 0 0 12.76,-1.24 c 7.41,-1.64 9.46,-8.23 10.7,-18.51 1.64,-14.82 1.64,-42.39 1.64,-74.48 z m 46.09,27.16 c 0,3.71 0.82,4.94 3.29,6.17 7.82,2.47 18.52,3.3 27.57,3.3 14.4,0 19.34,-1.24 25.51,-5.76 11.11,-7.82 23.46,-23 23.46,-51.85 0,-49.38 -33.74,-62.14 -55.14,-62.14 -9,0 -17.69,0.42 -21.4,1.24 -2.47,0.82 -3.29,2.06 -3.29,4.94 z"
         id="path5340"
         style="fill:#004976;fill-opacity:1" />
      <path
         class="cls-1"
         d="m 2343.62,607 c 0,-53.08 0,-62.95 -0.41,-74.06 -0.82,-11.94 -4.11,-15.64 -15.63,-18.93 -2.88,-0.82 -9.06,-1.24 -14.41,-1.24 -3.7,0 -6.17,-1.23 -6.17,-3.7 0,-2.47 2.88,-3.29 8.23,-3.29 18.93,0 42,0.82 52.26,0.82 11.11,0 37,-0.82 58.84,-0.82 45.27,0 106.17,0 145.67,39.91 18.1,18.11 34.15,47.32 34.15,88.88 0,44 -18.93,77.36 -39.5,97.53 -16.46,16.45 -54.73,41.14 -121.39,41.14 -13.17,0 -28.8,-1.23 -43.21,-2 -14.4,-1.24 -27.56,-2.06 -36.62,-2.06 -4.11,0 -11.93,0.41 -20.57,0.41 -8.64,0.41 -17.7,0.82 -25.1,0.82 -4.53,0 -7,-1.23 -7,-3.7 0,-1.65 1.24,-3.7 5.76,-3.7 a 53.43,53.43 0 0 0 12.76,-1.24 c 7.41,-1.64 9.46,-8.23 10.7,-18.51 1.64,-14.82 1.64,-42.39 1.64,-74.48 z m 48.56,38.68 c 0,37 0.41,63.78 0.82,70.78 0.41,8.64 1.24,21 4.12,24.69 4.52,6.58 18.92,14 47.32,14 32.92,0 57.19,-5.76 79,-23.87 23.46,-19.34 30.86,-50.61 30.86,-86.82 0,-44.44 -17.69,-73.25 -33.74,-87.24 -33.33,-29.62 -72.83,-33.33 -101.22,-33.33 -7.41,0 -19.34,0.83 -22.22,2.47 -3.3,1.24 -4.53,2.88 -4.53,7 -0.41,11.93 -0.41,40.74 -0.41,68.3 z"
         id="path5342"
         style="fill:#004976;fill-opacity:1" />
      <path
         class="cls-1"
         d="m 1227.26,324.88 c -50.48,57 -189.8,351.48 -198.75,413.55 -1.27,7.9 0,12.42 0,18.63 0,9.59 -49.2,28.78 -76.67,28.78 -6.39,0 -8.31,-1.14 -8.31,-5.65 0,-5.08 -2.53,-14.71 4.62,-37.72 17.25,-46.83 117.32,-258.55 201,-370.29 h -138.68 c -17.25,0 -42.17,1.14 -56.87,9 -10.86,5.64 -19.16,18.63 -20.44,26.53 -0.64,3.95 -1.92,6.2 -5.75,6.2 -4.48,0 -5.12,-2.82 -5.12,-7.33 0,-17.5 12.32,-87.94 12.32,-92.46 0,-5.08 2.56,-6.77 6.39,-6.77 1.92,0 6.39,1.13 17.89,2.26 12.14,1.13 32,2.25 63.9,2.25 H 1217 c 11.5,0 14.7,1.7 14.7,4 0.03,2.81 -2.52,7.32 -4.44,9.02 z"
         id="path5344"
         style="fill:#004976;fill-opacity:1" />
      <path
         class="cls-1"
         d="m 900.2,771.21 c -46,0 -139.26,-0.72 -178.24,-0.72 -6.39,0 -4.64,-13.75 -0.81,-13.73 7.26,0 57.57,-0.59 58.16,-37 0.38,-23.4 2,-281.71 2,-299.43 0,-12.21 0,-18.94 -8.94,-18.94 -11.51,0 -52.7,16.82 -55,17.86 -11.79,5.27 -29.08,1.82 -4,-13.13 138,-82.27 132.71,-98.69 137.82,-98.69 5.76,0 6.4,5.5 6.4,11 0,4.28 -0.66,378.19 -0.27,401.33 0.63,37.19 33.18,37.22 43.65,37.35 3.77,0 5.62,14.1 -0.77,14.1 z"
         id="path5346"
         style="fill:#004976;fill-opacity:1" />
      <path
         class="cls-2"
         d="m 1275,376.62 -15.16,0.4 c -5.9,0.21 -8.34,0.72 -9.87,3 a 12.52,12.52 0 0 0 -1.73,3.56 c -0.2,0.82 -0.5,1.23 -1.12,1.23 -0.62,0 -0.91,-0.51 -0.91,-1.63 0,-1.63 1.93,-10.89 2.14,-11.7 0.3,-1.33 0.61,-1.94 1.22,-1.94 0.81,0 1.83,1 4.37,1.22 2.95,0.31 6.82,0.51 10.18,0.51 h 40.29 a 47.75,47.75 0 0 0 7,-0.51 24.85,24.85 0 0 1 2.75,-0.5 c 0.71,0 0.81,0.61 0.81,2.13 0,2.14 -0.3,9.16 -0.3,11.81 -0.11,1 -0.31,1.62 -0.92,1.62 -0.81,0 -1,-0.51 -1.12,-2 l -0.1,-1.12 c -0.2,-2.65 -3,-5.5 -12,-5.7 l -12.82,-0.3 v 41.71 c 0,9.36 0,17.4 0.51,21.78 0.31,2.85 0.92,5.09 4,5.49 a 41.48,41.48 0 0 0 5.19,0.41 c 1.12,0 1.63,0.3 1.63,0.81 0,0.72 -0.82,1 -1.94,1 -6.71,0 -13.12,-0.3 -16,-0.3 -2.34,0 -8.75,0.3 -12.82,0.3 -1.32,0 -2,-0.3 -2,-1 0,-0.51 0.41,-0.81 1.63,-0.81 a 16.1,16.1 0 0 0 3.66,-0.41 c 2,-0.4 2.65,-2.64 3,-5.59 0.5,-4.28 0.5,-12.32 0.5,-21.68 z"
         id="path5348"
         style="opacity:0.98;isolation:isolate;fill:#004976;fill-opacity:1" />
      <path
         class="cls-2"
         d="m 1385.89,403.27 c 0.3,0 0.61,-0.2 0.61,-0.71 v -2.13 c 0,-15.47 0,-18.32 -0.21,-21.58 -0.2,-3.46 -1,-5.08 -4.37,-5.8 a 21.24,21.24 0 0 0 -4,-0.3 c -1.12,0 -1.73,-0.2 -1.73,-0.92 0,-0.72 0.71,-0.91 2.14,-0.91 5.49,0 11.9,0.3 14.65,0.3 2.44,0 8.85,-0.3 12.82,-0.3 1.42,0 2.14,0.2 2.14,0.91 0,0.71 -0.61,0.92 -1.83,0.92 a 18.31,18.31 0 0 0 -3,0.3 c -2.75,0.51 -3.57,2.24 -3.77,5.8 -0.2,3.26 -0.2,6.11 -0.2,21.58 v 17.9 c 0,9.36 0,17.4 0.51,21.78 0.3,2.85 0.91,5.09 4,5.49 a 41.78,41.78 0 0 0 5.19,0.41 c 1.12,0 1.63,0.3 1.63,0.81 0,0.72 -0.81,1 -2,1 -6.62,0 -13,-0.3 -15.88,-0.3 -2.34,0 -8.75,0.3 -12.72,0.3 -1.42,0 -2.13,-0.3 -2.13,-1 0,-0.51 0.4,-0.81 1.63,-0.81 a 16.24,16.24 0 0 0 3.66,-0.41 c 2,-0.4 2.54,-2.64 3,-5.59 0.51,-4.28 0.51,-12.32 0.51,-21.68 v -8.95 a 0.59,0.59 0 0 0 -0.61,-0.61 H 1347 c -0.31,0 -0.61,0.1 -0.61,0.61 v 8.95 c 0,9.36 0,17.4 0.51,21.78 0.3,2.85 0.91,5.09 4,5.49 a 41.47,41.47 0 0 0 5.18,0.41 c 1.12,0 1.63,0.3 1.63,0.81 0,0.72 -0.81,1 -2,1 -6.62,0 -13,-0.3 -15.88,-0.3 -2.34,0 -8.75,0.3 -12.82,0.3 -1.32,0 -2,-0.3 -2,-1 0,-0.51 0.41,-0.81 1.63,-0.81 a 16.24,16.24 0 0 0 3.66,-0.41 c 2,-0.4 2.54,-2.64 3,-5.59 0.51,-4.28 0.51,-12.32 0.51,-21.68 v -17.9 c 0,-15.47 0,-18.32 -0.2,-21.58 -0.21,-3.46 -1,-5.08 -4.38,-5.8 a 21.24,21.24 0 0 0 -4,-0.3 c -1.12,0 -1.73,-0.2 -1.73,-0.92 0,-0.72 0.72,-0.91 2.14,-0.91 5.49,0 11.9,0.3 14.65,0.3 2.44,0 8.85,-0.3 12.82,-0.3 1.43,0 2.14,0.2 2.14,0.91 0,0.71 -0.61,0.92 -1.83,0.92 a 18.31,18.31 0 0 0 -2.95,0.3 c -2.75,0.51 -3.56,2.24 -3.77,5.8 -0.2,3.26 -0.2,6.11 -0.2,21.58 v 2.13 c 0,0.51 0.3,0.71 0.61,0.71 z"
         id="path5350"
         style="opacity:0.98;isolation:isolate;fill:#004976;fill-opacity:1" />
      <path
         class="cls-3"
         d="m 626,861.35 -11.46,0.3 c -4.46,0.16 -6.3,0.54 -7.46,2.23 a 9,9 0 0 0 -1.3,2.7 c -0.16,0.61 -0.39,0.92 -0.85,0.92 -0.46,0 -0.69,-0.38 -0.69,-1.23 0,-1.23 1.46,-8.23 1.61,-8.85 0.23,-1 0.46,-1.46 0.92,-1.46 0.62,0 1.39,0.77 3.31,0.93 2.23,0.23 5.15,0.38 7.69,0.38 h 30.46 a 37.74,37.74 0 0 0 5.31,-0.38 19,19 0 0 1 2.07,-0.39 c 0.54,0 0.62,0.46 0.62,1.62 0,1.61 -0.23,6.92 -0.23,8.92 -0.08,0.77 -0.23,1.23 -0.7,1.23 -0.47,0 -0.76,-0.39 -0.84,-1.54 l -0.08,-0.85 c -0.15,-2 -2.23,-4.15 -9.07,-4.3 l -9.69,-0.23 v 31.53 c 0,7.08 0,13.15 0.38,16.46 0.23,2.15 0.69,3.84 3,4.15 a 33.27,33.27 0 0 0 3.92,0.31 c 0.85,0 1.23,0.23 1.23,0.61 0,0.54 -0.61,0.77 -1.46,0.77 -5.07,0 -9.92,-0.23 -12.07,-0.23 -1.77,0 -6.62,0.23 -9.69,0.23 -1,0 -1.54,-0.23 -1.54,-0.77 0,-0.38 0.31,-0.61 1.23,-0.61 a 12.87,12.87 0 0 0 2.77,-0.31 c 1.54,-0.31 2,-2 2.23,-4.23 0.38,-3.23 0.38,-9.3 0.38,-16.38 z"
         id="path5352"
         style="fill:#004976;fill-opacity:1" />
      <path
         class="cls-1"
         d="m 709.88,881.5 c 0.23,0 0.46,-0.16 0.46,-0.54 v -1.62 c 0,-11.69 0,-13.84 -0.16,-16.3 -0.15,-2.62 -0.76,-3.85 -3.3,-4.38 a 15.31,15.31 0 0 0 -3,-0.24 c -0.85,0 -1.31,-0.15 -1.31,-0.69 0,-0.54 0.54,-0.69 1.62,-0.69 4.15,0 9,0.23 11.07,0.23 1.85,0 6.69,-0.23 9.69,-0.23 1.08,0 1.62,0.15 1.62,0.69 0,0.54 -0.47,0.69 -1.39,0.69 a 13.18,13.18 0 0 0 -2.23,0.24 c -2.08,0.38 -2.69,1.69 -2.84,4.38 -0.16,2.46 -0.16,4.61 -0.16,16.3 v 13.54 c 0,7.08 0,13.15 0.39,16.46 0.23,2.15 0.69,3.84 3,4.15 a 32.93,32.93 0 0 0 3.92,0.31 c 0.84,0 1.23,0.23 1.23,0.61 0,0.54 -0.62,0.77 -1.54,0.77 -5,0 -9.84,-0.23 -12,-0.23 -1.77,0 -6.61,0.23 -9.61,0.23 -1.08,0 -1.62,-0.23 -1.62,-0.77 0,-0.38 0.31,-0.61 1.23,-0.61 a 12.71,12.71 0 0 0 2.77,-0.31 c 1.54,-0.31 1.93,-2 2.23,-4.23 0.39,-3.23 0.39,-9.3 0.39,-16.38 v -6.77 a 0.44,0.44 0 0 0 -0.46,-0.46 H 680.5 a 0.4,0.4 0 0 0 -0.46,0.46 v 6.77 c 0,7.08 0,13.15 0.38,16.46 0.23,2.15 0.69,3.84 3,4.15 a 33.27,33.27 0 0 0 3.92,0.31 c 0.85,0 1.23,0.23 1.23,0.61 0,0.54 -0.61,0.77 -1.54,0.77 -5,0 -9.84,-0.23 -12,-0.23 -1.77,0 -6.62,0.23 -9.69,0.23 -1,0 -1.54,-0.23 -1.54,-0.77 0,-0.38 0.31,-0.61 1.23,-0.61 a 12.79,12.79 0 0 0 2.77,-0.31 c 1.54,-0.31 1.92,-2 2.23,-4.23 0.38,-3.23 0.38,-9.3 0.38,-16.38 v -13.54 c 0,-11.69 0,-13.84 -0.15,-16.3 -0.16,-2.62 -0.77,-3.85 -3.31,-4.38 a 15.17,15.17 0 0 0 -3,-0.24 c -0.84,0 -1.31,-0.15 -1.31,-0.69 0,-0.54 0.54,-0.69 1.62,-0.69 4.15,0 9,0.23 11.07,0.23 1.85,0 6.7,-0.23 9.7,-0.23 1.07,0 1.61,0.15 1.61,0.69 0,0.54 -0.46,0.69 -1.38,0.69 a 13.08,13.08 0 0 0 -2.23,0.24 c -2.08,0.38 -2.7,1.69 -2.85,4.38 -0.15,2.46 -0.15,4.61 -0.15,16.3 V 881 c 0,0.38 0.23,0.54 0.46,0.54 z"
         id="path5354"
         style="fill:#004976;fill-opacity:1" />
      <path
         class="cls-1"
         d="m 745.18,879.34 c 0,-11.69 0,-13.84 -0.15,-16.3 -0.15,-2.62 -0.77,-3.85 -3.31,-4.38 a 15.17,15.17 0 0 0 -3,-0.24 c -0.84,0 -1.3,-0.15 -1.3,-0.69 0,-0.54 0.53,-0.69 1.69,-0.69 2.07,0 4.3,0.08 6.23,0.08 1.93,0 3.76,0.15 4.84,0.15 2.46,0 17.77,0 19.23,-0.08 a 28.65,28.65 0 0 0 3.31,-0.46 7.64,7.64 0 0 1 1.23,-0.31 c 0.38,0 0.46,0.31 0.46,0.7 a 48.07,48.07 0 0 0 -0.62,5 c -0.07,0.77 -0.23,4.15 -0.38,5.07 -0.08,0.39 -0.23,0.85 -0.77,0.85 -0.54,0 -0.69,-0.39 -0.69,-1.08 a 8.39,8.39 0 0 0 -0.46,-2.77 c -0.54,-1.38 -1.31,-2.3 -5.16,-2.77 -1.3,-0.15 -9.38,-0.3 -10.92,-0.3 -0.38,0 -0.54,0.23 -0.54,0.77 v 19.45 c 0,0.54 0.08,0.85 0.54,0.85 1.69,0 10.54,0 12.31,-0.15 1.77,-0.15 3,-0.39 3.69,-1.16 0.54,-0.61 0.84,-1 1.23,-1 0.39,0 0.54,0.16 0.54,0.62 0,0.46 -0.31,1.69 -0.62,5.61 -0.07,1.54 -0.31,4.62 -0.31,5.15 0,0.53 0,1.47 -0.69,1.47 a 0.61,0.61 0 0 1 -0.69,-0.7 20.9,20.9 0 0 0 -0.31,-2.77 c -0.38,-1.53 -1.46,-2.69 -4.3,-3 -1.47,-0.16 -9.08,-0.24 -10.93,-0.24 -0.38,0 -0.46,0.31 -0.46,0.77 v 6.08 c 0,2.61 -0.07,9.69 0,11.92 0.16,5.31 1.39,6.46 9.23,6.46 2,0 5.23,0 7.23,-0.92 2,-0.92 2.92,-2.54 3.46,-5.69 0.16,-0.85 0.31,-1.16 0.85,-1.16 0.54,0 0.61,0.62 0.61,1.39 a 59.27,59.27 0 0 1 -1,8.53 c -0.53,2 -1.23,2 -4.15,2 -5.77,0 -10,-0.15 -13.3,-0.23 -3.3,-0.08 -5.7,-0.23 -8,-0.23 -0.85,0 -2.54,0 -4.39,0.08 -1.85,0.08 -3.77,0.15 -5.3,0.15 -1,0 -1.54,-0.23 -1.54,-0.77 0,-0.38 0.31,-0.61 1.23,-0.61 a 12.79,12.79 0 0 0 2.77,-0.31 c 1.54,-0.31 1.92,-2 2.23,-4.23 0.38,-3.23 0.38,-9.3 0.38,-16.38 z"
         id="path5356"
         style="fill:#004976;fill-opacity:1" />
      <path
         class="cls-1"
         d="m 808.48,886.11 c 0,-13.15 8.69,-30.15 31.77,-30.15 19.15,0 31.07,11.16 31.07,28.77 0,17.61 -12.32,31.53 -31.84,31.53 -22.08,0 -31,-16.54 -31,-30.15 z m 52.07,1.46 c 0,-17.22 -9.92,-27.91 -22.53,-27.91 -8.85,0 -18.92,4.92 -18.92,24.07 0,16 8.84,28.68 23.61,28.68 5.38,0 17.84,-2.61 17.84,-24.84 z"
         id="path5358"
         style="fill:#004976;fill-opacity:1" />
      <path
         class="cls-1"
         d="m 897.09,892.88 c 0,7.38 0,13.15 0.38,16.38 0.23,2.23 0.69,3.92 3,4.23 a 33.29,33.29 0 0 0 3.85,0.31 c 1,0 1.3,0.23 1.3,0.61 0,0.54 -0.53,0.77 -1.69,0.77 -4.84,0 -9.69,-0.23 -11.69,-0.23 -2,0 -6.84,0.23 -9.77,0.23 -1.07,0 -1.61,-0.15 -1.61,-0.77 0,-0.38 0.31,-0.61 1.15,-0.61 a 12.71,12.71 0 0 0 2.77,-0.31 c 1.54,-0.31 1.92,-2 2.23,-4.23 0.39,-3.23 0.39,-9 0.39,-16.38 v -13.54 c 0,-11.69 0,-13.84 -0.16,-16.3 -0.15,-2.62 -0.77,-3.85 -3.3,-4.38 a 15.31,15.31 0 0 0 -3,-0.24 c -0.77,0 -1.31,-0.15 -1.31,-0.61 0,-0.62 0.61,-0.77 1.77,-0.77 2,0 4.23,0.08 6.23,0.08 2,0 3.77,0.15 4.84,0.15 2.93,0 18.54,0 20.31,-0.08 a 14.52,14.52 0 0 0 3.15,-0.3 4.78,4.78 0 0 1 1.23,-0.47 c 0.31,0 0.54,0.31 0.54,0.7 0,0.39 -0.39,1.46 -0.62,3.46 -0.07,0.77 -0.23,5.3 -0.38,6.23 -0.08,0.61 -0.23,1.07 -0.77,1.07 -0.54,0 -0.69,-0.38 -0.77,-1.23 a 7.57,7.57 0 0 0 -0.46,-2.92 c -0.54,-1.08 -2.15,-2.23 -5.08,-2.31 l -11.84,-0.23 c -0.46,0 -0.69,0.23 -0.69,1.08 v 19.23 c 0,0.46 0.07,0.69 0.54,0.69 l 9.84,-0.08 c 1.31,0 2.38,0 3.46,-0.07 a 4,4 0 0 0 3.31,-1.39 c 0.38,-0.46 0.54,-0.77 1,-0.77 0.31,0 0.46,0.23 0.46,0.69 0,0.46 -0.39,2.39 -0.62,4.77 -0.15,1.54 -0.3,5.08 -0.3,5.62 0,0.54 0,1.46 -0.77,1.46 -0.46,0 -0.62,-0.54 -0.62,-1.08 a 8.33,8.33 0 0 0 -0.46,-2.38 4.51,4.51 0 0 0 -3.92,-2.77 c -1.92,-0.23 -10.08,-0.23 -11.38,-0.23 -0.39,0 -0.54,0.15 -0.54,0.69 z"
         id="path5360"
         style="fill:#004976;fill-opacity:1" />
      <path
         class="cls-1"
         d="m 944.93,892.88 c 0,7.38 0,13.15 0.38,16.38 0.23,2.23 0.69,3.92 3,4.23 a 33.29,33.29 0 0 0 3.85,0.31 c 1,0 1.31,0.23 1.31,0.61 0,0.54 -0.54,0.77 -1.7,0.77 -4.84,0 -9.69,-0.23 -11.69,-0.23 -2,0 -6.84,0.23 -9.76,0.23 -1.08,0 -1.62,-0.15 -1.62,-0.77 0,-0.38 0.31,-0.61 1.15,-0.61 a 12.71,12.71 0 0 0 2.77,-0.31 c 1.54,-0.31 1.93,-2 2.23,-4.23 0.39,-3.23 0.39,-9 0.39,-16.38 v -13.54 c 0,-11.69 0,-13.84 -0.16,-16.3 -0.15,-2.62 -0.77,-3.85 -3.3,-4.38 a 15.31,15.31 0 0 0 -3,-0.24 c -0.77,0 -1.31,-0.15 -1.31,-0.61 0,-0.62 0.62,-0.77 1.77,-0.77 2,0 4.23,0.08 6.23,0.08 2,0 3.77,0.15 4.84,0.15 2.93,0 18.54,0 20.31,-0.08 a 14.52,14.52 0 0 0 3.15,-0.3 4.78,4.78 0 0 1 1.23,-0.47 c 0.31,0 0.54,0.31 0.54,0.7 0,0.39 -0.38,1.46 -0.62,3.46 -0.07,0.77 -0.23,5.3 -0.38,6.23 -0.08,0.61 -0.23,1.07 -0.77,1.07 -0.54,0 -0.69,-0.38 -0.77,-1.23 a 7.57,7.57 0 0 0 -0.46,-2.92 c -0.54,-1.08 -2.15,-2.23 -5.08,-2.31 l -11.84,-0.23 c -0.46,0 -0.69,0.23 -0.69,1.08 v 19.23 c 0,0.46 0.08,0.69 0.54,0.69 l 9.84,-0.08 c 1.31,0 2.38,0 3.46,-0.07 a 4,4 0 0 0 3.31,-1.39 c 0.38,-0.46 0.54,-0.77 1,-0.77 0.31,0 0.46,0.23 0.46,0.69 0,0.46 -0.38,2.39 -0.62,4.77 -0.15,1.54 -0.3,5.08 -0.3,5.62 0,0.54 0,1.46 -0.77,1.46 -0.46,0 -0.62,-0.54 -0.62,-1.08 a 8.33,8.33 0 0 0 -0.46,-2.38 4.51,4.51 0 0 0 -3.92,-2.77 c -1.92,-0.23 -10.08,-0.23 -11.38,-0.23 -0.39,0 -0.54,0.15 -0.54,0.69 z"
         id="path5362"
         style="fill:#004976;fill-opacity:1" />
      <path
         class="cls-1"
         d="m 983.08,879.34 c 0,-11.69 0,-13.84 -0.16,-16.3 -0.15,-2.62 -0.92,-3.92 -2.61,-4.31 a 11,11 0 0 0 -2.77,-0.31 c -0.77,0 -1.23,-0.15 -1.23,-0.76 0,-0.61 0.62,-0.62 1.85,-0.62 2.92,0 7.76,0.23 10,0.23 1.93,0 6.46,-0.23 9.39,-0.23 1,0 1.61,0.15 1.61,0.62 0,0.47 -0.46,0.76 -1.23,0.76 a 12.59,12.59 0 0 0 -2.31,0.24 c -2.07,0.38 -2.69,1.69 -2.84,4.38 -0.15,2.46 -0.15,4.61 -0.15,16.3 v 13.54 c 0,7.46 0,13.54 0.3,16.84 0.23,2.08 0.77,3.46 3.08,3.77 a 33.27,33.27 0 0 0 3.92,0.31 c 0.85,0 1.23,0.23 1.23,0.61 0,0.54 -0.61,0.77 -1.46,0.77 -5.08,0 -9.92,-0.23 -12,-0.23 -1.77,0 -6.61,0.23 -9.69,0.23 -1,0 -1.54,-0.23 -1.54,-0.77 0,-0.38 0.31,-0.61 1.23,-0.61 a 12.71,12.71 0 0 0 2.77,-0.31 c 1.54,-0.31 2,-1.61 2.23,-3.84 0.39,-3.23 0.39,-9.31 0.39,-16.77 z"
         id="path5364"
         style="fill:#004976;fill-opacity:1" />
      <path
         class="cls-1"
         d="m 1018.23,907.88 c -7.54,-6.62 -9.54,-15.23 -9.54,-22.69 0,-5.23 1.62,-14.31 9,-21.07 5.54,-5.08 12.84,-8.16 24.3,-8.16 a 76.35,76.35 0 0 1 11.16,0.77 c 2.92,0.39 5.38,1.08 7.69,1.31 0.84,0.08 1.15,0.46 1.15,0.92 0,0.62 -0.23,1.54 -0.38,4.23 -0.16,2.54 -0.08,6.77 -0.24,8.31 -0.07,1.15 -0.23,1.77 -0.92,1.77 -0.69,0 -0.77,-0.62 -0.77,-1.69 a 10.91,10.91 0 0 0 -3,-7.08 c -2.53,-2.69 -8.53,-4.77 -15.61,-4.77 -6.69,0 -11.07,1.69 -14.46,4.77 -5.61,5.15 -7.07,12.46 -7.07,19.92 0,18.3 13.92,27.38 24.22,27.38 6.85,0 11,-0.77 14.08,-4.31 a 13,13 0 0 0 2.61,-5.07 c 0.23,-1.23 0.39,-1.54 1,-1.54 0.61,0 0.69,0.54 0.69,1.15 a 72.85,72.85 0 0 1 -1.69,10.23 2.71,2.71 0 0 1 -2,2.23 c -3.07,1.23 -8.92,1.77 -13.84,1.77 -10.54,0 -19.38,-2.26 -26.38,-8.38 z"
         id="path5366"
         style="fill:#004976;fill-opacity:1" />
      <path
         class="cls-1"
         d="m 1078.61,879.34 c 0,-11.69 0,-13.84 -0.16,-16.3 -0.15,-2.62 -0.92,-3.92 -2.61,-4.31 a 11,11 0 0 0 -2.77,-0.31 c -0.77,0 -1.23,-0.15 -1.23,-0.76 0,-0.61 0.61,-0.62 1.84,-0.62 2.93,0 7.77,0.23 10,0.23 1.93,0 6.46,-0.23 9.39,-0.23 1,0 1.61,0.15 1.61,0.62 0,0.47 -0.46,0.76 -1.23,0.76 a 12.59,12.59 0 0 0 -2.31,0.24 c -2.07,0.38 -2.69,1.69 -2.84,4.38 -0.16,2.46 -0.16,4.61 -0.16,16.3 v 13.54 c 0,7.46 0,13.54 0.31,16.84 0.23,2.08 0.77,3.46 3.08,3.77 a 33.1,33.1 0 0 0 3.92,0.31 c 0.85,0 1.23,0.23 1.23,0.61 0,0.54 -0.61,0.77 -1.46,0.77 -5.08,0 -9.92,-0.23 -12,-0.23 -1.77,0 -6.61,0.23 -9.69,0.23 -1,0 -1.54,-0.23 -1.54,-0.77 0,-0.38 0.31,-0.61 1.23,-0.61 a 12.71,12.71 0 0 0 2.77,-0.31 c 1.54,-0.31 2,-1.61 2.23,-3.84 0.39,-3.23 0.39,-9.31 0.39,-16.77 z"
         id="path5368"
         style="fill:#004976;fill-opacity:1" />
      <path
         class="cls-1"
         d="m 1116.45,895.57 c -0.39,0 -0.54,0.16 -0.69,0.62 l -4.16,10.53 a 14.92,14.92 0 0 0 -1.15,4.69 c 0,1.39 0.69,2.39 3.08,2.39 h 1.15 c 0.92,0 1.15,0.15 1.15,0.61 0,0.62 -0.46,0.77 -1.3,0.77 -2.47,0 -5.77,-0.23 -8.16,-0.23 -0.84,0 -5.07,0.23 -9.07,0.23 -1,0 -1.46,-0.15 -1.46,-0.77 0,-0.46 0.3,-0.61 0.92,-0.61 a 22.27,22.27 0 0 0 2.38,-0.16 c 3.54,-0.46 5,-3.07 6.54,-6.92 L 1125,859 c 0.92,-2.23 1.38,-3.08 2.15,-3.08 0.77,0 1.15,0.7 1.92,2.46 1.85,4.23 14.15,35 19.07,46.69 2.93,6.92 5.16,8 6.77,8.38 a 17,17 0 0 0 3.23,0.31 c 0.62,0 1,0.08 1,0.61 0,0.53 -0.69,0.77 -3.54,0.77 -2.85,0 -8.38,0 -14.53,-0.15 -1.39,-0.08 -2.31,-0.08 -2.31,-0.62 0,-0.54 0.31,-0.61 1.08,-0.69 a 1.25,1.25 0 0 0 0.69,-1.77 l -6.15,-15.84 a 0.76,0.76 0 0 0 -0.77,-0.54 z m 15.69,-3.84 c 0.38,0 0.46,-0.23 0.38,-0.47 l -6.92,-18.92 c -0.08,-0.3 -0.15,-0.69 -0.38,-0.69 -0.23,0 -0.39,0.39 -0.47,0.69 l -7.07,18.85 c -0.08,0.31 0,0.54 0.31,0.54 z"
         id="path5370"
         style="fill:#004976;fill-opacity:1" />
      <path
         class="cls-1"
         d="m 1176.83,892.88 c 0,9.84 0,15.15 1.61,16.54 1.31,1.15 3.31,1.69 9.31,1.69 4.07,0 7.07,-0.08 9,-2.16 a 9.61,9.61 0 0 0 2,-4.61 c 0.08,-0.69 0.24,-1.15 0.85,-1.15 0.61,0 0.62,0.38 0.62,1.3 a 60.17,60.17 0 0 1 -1.16,8.85 c -0.46,1.69 -0.84,2.07 -4.84,2.07 -5.54,0 -9.54,-0.15 -13,-0.23 -3.46,-0.08 -6.23,-0.23 -9.38,-0.23 -0.85,0 -2.54,0 -4.39,0.08 -1.85,0.08 -3.77,0.15 -5.3,0.15 -1,0 -1.54,-0.23 -1.54,-0.77 0,-0.38 0.31,-0.61 1.23,-0.61 a 12.79,12.79 0 0 0 2.77,-0.31 c 1.54,-0.31 1.92,-2 2.23,-4.23 0.38,-3.23 0.38,-9.3 0.38,-16.38 v -13.54 c 0,-11.69 0,-13.84 -0.15,-16.3 -0.16,-2.62 -0.77,-3.85 -3.31,-4.38 a 11,11 0 0 0 -2.54,-0.24 c -0.84,0 -1.3,-0.15 -1.3,-0.69 0,-0.54 0.53,-0.69 1.69,-0.69 3.61,0 8.46,0.23 10.53,0.23 1.85,0 7.46,-0.23 10.46,-0.23 1.08,0 1.62,0.15 1.62,0.69 0,0.54 -0.46,0.69 -1.39,0.69 a 19.61,19.61 0 0 0 -3,0.24 c -2.08,0.38 -2.7,1.69 -2.85,4.38 -0.15,2.46 -0.15,4.61 -0.15,16.3 z"
         id="path5372"
         style="fill:#004976;fill-opacity:1" />
      <path
         class="cls-4"
         d="m 1236.82,879.34 c 0,-11.69 0,-13.84 -0.15,-16.3 -0.16,-2.62 -0.77,-3.85 -3.31,-4.38 a 15.24,15.24 0 0 0 -3,-0.24 c -0.85,0 -1.31,-0.15 -1.31,-0.69 0,-0.54 0.54,-0.69 1.69,-0.69 4.08,0 8.93,0.23 10.46,0.23 3.77,0 6.77,-0.23 9.39,-0.23 13.92,0 16.38,7.46 16.38,11.54 0,6.3 -3.62,10.07 -7.85,13.46 6.31,2.15 14,7.61 14,16.61 0,8.23 -6.38,16.76 -20.53,16.76 -0.93,0 -3.16,-0.15 -5.39,-0.23 -2.23,-0.08 -4.61,-0.23 -5.77,-0.23 -0.84,0 -2.53,0 -4.38,0.08 -1.85,0.08 -3.77,0.15 -5.31,0.15 -1,0 -1.53,-0.23 -1.53,-0.77 0,-0.38 0.3,-0.61 1.23,-0.61 a 12.87,12.87 0 0 0 2.77,-0.31 c 1.53,-0.31 1.92,-2 2.23,-4.23 0.38,-3.23 0.38,-9.3 0.38,-16.38 z m 9.23,1.31 c 0,0.62 0.23,0.77 0.54,0.85 a 19,19 0 0 0 3.61,0.23 c 2.54,0 4.23,-0.31 5.54,-1.46 2,-1.62 3.15,-4.39 3.15,-8.16 0,-5.15 -3,-11.92 -9.61,-11.92 a 12,12 0 0 0 -2.54,0.16 c -0.54,0.15 -0.69,0.46 -0.69,1.3 z m 10.15,6.15 c -1.61,-1.15 -3.38,-1.69 -6.38,-1.84 -1.39,-0.08 -2.16,-0.08 -3.31,-0.08 -0.31,0 -0.46,0.15 -0.46,0.54 v 18.23 c 0,5.07 0.23,6.38 2.69,7.38 a 13.79,13.79 0 0 0 5.61,0.92 c 3.47,0 9.31,-1.84 9.31,-9.84 0,-4.77 -1.61,-11.23 -7.46,-15.31 z"
         id="path5374"
         style="fill:#ff9e1b;fill-opacity:1" />
      <path
         class="cls-4"
         d="m 1289.66,879.34 c 0,-11.69 0,-13.84 -0.15,-16.3 -0.16,-2.62 -0.77,-3.85 -3.31,-4.38 a 15.24,15.24 0 0 0 -3,-0.24 c -0.85,0 -1.31,-0.15 -1.31,-0.69 0,-0.54 0.54,-0.69 1.69,-0.69 4.08,0 8.93,0.23 10.54,0.23 2.62,0 8.46,-0.23 10.84,-0.23 4.85,0 10,0.46 14.16,3.31 a 13.33,13.33 0 0 1 5.23,10.53 c 0,5.69 -2.39,10.92 -10.16,17.23 6.85,8.62 12.16,15.46 16.69,20.23 4.31,4.46 7.46,5 8.62,5.23 a 12.43,12.43 0 0 0 2.15,0.23 c 0.62,0 0.92,0.23 0.92,0.61 0,0.62 -0.53,0.77 -1.46,0.77 h -7.3 c -4.31,0 -6.23,-0.38 -8.23,-1.46 -3.31,-1.77 -6.23,-5.38 -10.54,-11.3 -3.08,-4.23 -6.61,-9.46 -7.61,-10.62 a 1.62,1.62 0 0 0 -1.39,-0.54 l -6.69,-0.15 c -0.38,0 -0.61,0.15 -0.61,0.62 v 1.07 c 0,7.16 0,13.23 0.38,16.46 0.23,2.23 0.69,3.92 3,4.23 a 36.23,36.23 0 0 0 3.77,0.31 c 0.61,0 0.92,0.23 0.92,0.61 0,0.54 -0.54,0.77 -1.54,0.77 -4.46,0 -10.15,-0.23 -11.3,-0.23 -1.46,0 -6.31,0.23 -9.39,0.23 -1,0 -1.53,-0.23 -1.53,-0.77 0,-0.38 0.3,-0.61 1.23,-0.61 a 12.87,12.87 0 0 0 2.77,-0.31 c 1.53,-0.31 1.92,-2 2.23,-4.23 0.38,-3.23 0.38,-9.3 0.38,-16.38 z m 9.08,6.08 c 0,0.85 0.15,1.15 0.69,1.38 a 20.17,20.17 0 0 0 5.84,0.77 c 3.08,0 4.08,-0.3 5.46,-1.3 2.31,-1.7 4.54,-5.23 4.54,-11.54 0,-10.92 -7.23,-14.08 -11.77,-14.08 a 16.85,16.85 0 0 0 -4.07,0.31 c -0.54,0.16 -0.69,0.46 -0.69,1.08 z"
         id="path5376"
         style="fill:#ff9e1b;fill-opacity:1" />
      <path
         class="cls-4"
         d="m 1350.81,895.57 c -0.39,0 -0.54,0.16 -0.7,0.62 l -4.11,10.53 a 14.92,14.92 0 0 0 -1.15,4.69 c 0,1.39 0.69,2.39 3.07,2.39 h 1.08 c 0.92,0 1.15,0.15 1.15,0.61 0,0.62 -0.46,0.77 -1.31,0.77 -2.46,0 -5.76,-0.23 -8.15,-0.23 -0.84,0 -5.07,0.23 -9.07,0.23 -1,0 -1.46,-0.15 -1.46,-0.77 0,-0.46 0.3,-0.61 0.92,-0.61 a 22.27,22.27 0 0 0 2.38,-0.16 c 3.54,-0.46 5,-3.07 6.54,-6.92 l 19.3,-47.68 c 0.93,-2.23 1.39,-3.08 2.16,-3.08 0.77,0 1.15,0.7 1.92,2.46 1.85,4.23 14.15,35 19.07,46.69 2.93,6.92 5.16,8 6.77,8.38 a 16.94,16.94 0 0 0 3.23,0.31 c 0.62,0 1,0.08 1,0.61 0,0.53 -0.69,0.77 -3.54,0.77 -2.85,0 -8.38,0 -14.53,-0.15 -1.39,-0.08 -2.31,-0.08 -2.31,-0.62 0,-0.54 0.31,-0.61 1.08,-0.69 a 1.25,1.25 0 0 0 0.69,-1.77 l -6.15,-15.84 a 0.76,0.76 0 0 0 -0.77,-0.54 z m 15.69,-3.84 c 0.38,0 0.46,-0.23 0.38,-0.47 L 1360,872.34 c -0.08,-0.3 -0.15,-0.69 -0.39,-0.69 -0.24,0 -0.38,0.39 -0.46,0.69 l -7.15,18.85 c -0.08,0.31 0,0.54 0.31,0.54 z"
         id="path5378"
         style="fill:#ff9e1b;fill-opacity:1" />
      <path
         class="cls-4"
         d="m 1405.88,904.72 c 0.15,6 1.15,8 2.69,8.54 a 12.27,12.27 0 0 0 4,0.54 c 0.84,0 1.31,0.15 1.31,0.61 0,0.62 -0.7,0.77 -1.77,0.77 -5,0 -8.08,-0.23 -9.54,-0.23 -0.69,0 -4.31,0.23 -8.31,0.23 -1,0 -1.69,-0.07 -1.69,-0.77 0,-0.46 0.46,-0.61 1.23,-0.61 a 13.51,13.51 0 0 0 3.46,-0.39 c 2,-0.61 2.31,-2.84 2.39,-9.53 l 0.69,-45.3 c 0,-1.54 0.23,-2.62 1,-2.62 0.77,0 1.54,1 2.85,2.39 0.92,1 12.61,13.3 23.84,24.45 5.23,5.23 15.61,16.31 16.92,17.54 h 0.38 l -0.77,-34.53 c -0.07,-4.69 -0.77,-6.15 -2.61,-6.92 a 12.36,12.36 0 0 0 -4.08,-0.47 c -0.92,0 -1.23,-0.23 -1.23,-0.69 0,-0.46 0.85,-0.69 2,-0.69 4,0 7.69,0.23 9.31,0.23 0.84,0 3.77,-0.23 7.53,-0.23 1,0 1.77,0.08 1.77,0.69 0,0.61 -0.46,0.69 -1.38,0.69 a 8.07,8.07 0 0 0 -2.31,0.24 c -2.15,0.61 -2.77,2.23 -2.84,6.53 l -0.85,48.53 c 0,1.69 -0.31,2.39 -1,2.39 -0.85,0 -1.77,-0.85 -2.61,-1.7 -4.85,-4.61 -14.69,-14.69 -22.69,-22.61 -8.39,-8.3 -16.92,-17.69 -18.31,-19.15 H 1405 Z"
         id="path5380"
         style="fill:#ff9e1b;fill-opacity:1" />
      <path
         class="cls-4"
         d="m 1474.41,879.34 c 0,-11.69 0,-13.84 -0.15,-16.3 -0.16,-2.62 -0.77,-3.85 -3.31,-4.38 a 15.31,15.31 0 0 0 -3,-0.24 c -0.85,0 -1.31,-0.15 -1.31,-0.69 0,-0.54 0.54,-0.69 1.69,-0.69 4.08,0 8.92,0.23 11.08,0.23 2.38,0 7.23,-0.23 11.84,-0.23 9.62,0 22.46,0 30.84,8.77 3.85,4 7.46,10.38 7.46,19.53 a 30.53,30.53 0 0 1 -8.38,21.46 c -3.54,3.61 -11.54,9.08 -25.77,9.08 -2.76,0 -5.92,-0.24 -8.84,-0.47 -2.92,-0.23 -5.56,-0.41 -7.56,-0.41 -0.84,0 -2.53,0 -4.38,0.08 -1.85,0.08 -3.77,0.15 -5.31,0.15 -1,0 -1.54,-0.23 -1.54,-0.77 0,-0.38 0.31,-0.61 1.23,-0.61 a 12.71,12.71 0 0 0 2.77,-0.31 c 1.54,-0.31 1.93,-2 2.23,-4.23 0.39,-3.23 0.39,-9.3 0.39,-16.38 z m 9.61,8.46 c 0,8.16 0.08,14.08 0.16,15.54 0.07,1.92 0.23,5 0.84,5.84 1,1.47 4,3.08 10.08,3.08 7.84,0 13.07,-1.54 17.69,-5.54 4.92,-4.23 6.46,-11.23 6.46,-19.15 0,-9.76 -4.08,-16.07 -7.39,-19.22 -7.07,-6.77 -15.84,-7.7 -21.84,-7.7 a 20.94,20.94 0 0 0 -5,0.54 1.4,1.4 0 0 0 -0.92,1.54 c -0.08,2.62 -0.08,9.31 -0.08,15.38 z"
         id="path5382"
         style="fill:#ff9e1b;fill-opacity:1" />
      <path
         class="cls-4"
         d="m 1538,886.11 c 0,-13.15 8.69,-30.15 31.76,-30.15 19.15,0 31.07,11.16 31.07,28.77 0,17.61 -12.3,31.53 -31.84,31.53 -22.05,0 -30.99,-16.54 -30.99,-30.15 z m 52.07,1.46 c 0,-17.22 -9.93,-27.91 -22.54,-27.91 -8.84,0 -18.92,4.92 -18.92,24.07 0,16 8.85,28.68 23.61,28.68 5.41,0 17.87,-2.61 17.87,-24.84 z"
         id="path5384"
         style="fill:#ff9e1b;fill-opacity:1" />
      <path
         class="cls-4"
         d="m 1621.24,904.72 c 0.15,6 1.15,8 2.69,8.54 a 12.27,12.27 0 0 0 4,0.54 c 0.85,0 1.31,0.15 1.31,0.61 0,0.62 -0.69,0.77 -1.77,0.77 -5,0 -8.08,-0.23 -9.54,-0.23 -0.69,0 -4.31,0.23 -8.3,0.23 -1,0 -1.7,-0.07 -1.7,-0.77 0,-0.46 0.46,-0.61 1.23,-0.61 a 13.51,13.51 0 0 0 3.46,-0.39 c 2,-0.61 2.31,-2.84 2.39,-9.53 l 0.69,-45.3 c 0,-1.54 0.23,-2.62 1,-2.62 0.77,0 1.54,1 2.85,2.39 0.92,1 12.61,13.3 23.84,24.45 5.23,5.23 15.61,16.31 16.92,17.54 h 0.38 l -0.77,-34.53 c -0.07,-4.69 -0.77,-6.15 -2.61,-6.92 a 12.33,12.33 0 0 0 -4.08,-0.47 c -0.92,0 -1.23,-0.23 -1.23,-0.69 0,-0.46 0.85,-0.69 2,-0.69 4,0 7.69,0.23 9.31,0.23 0.84,0 3.77,-0.23 7.54,-0.23 1,0 1.76,0.08 1.76,0.69 0,0.61 -0.46,0.69 -1.38,0.69 a 8.11,8.11 0 0 0 -2.31,0.24 c -2.15,0.61 -2.77,2.23 -2.84,6.53 l -0.85,48.53 c 0,1.69 -0.31,2.39 -1,2.39 -0.85,0 -1.77,-0.85 -2.61,-1.7 -4.85,-4.61 -14.69,-14.69 -22.69,-22.61 -8.39,-8.3 -16.92,-17.69 -18.31,-19.15 h -0.23 z"
         id="path5386"
         style="fill:#ff9e1b;fill-opacity:1" />
      <path
         class="cls-4"
         d="m 1708.61,914.26 c -1.23,-0.54 -1.46,-0.92 -1.46,-2.61 0,-4.23 0.31,-8.85 0.39,-10.08 0.08,-1.23 0.3,-2 0.92,-2 0.62,0 0.77,0.69 0.77,1.31 a 16.46,16.46 0 0 0 0.69,3.92 c 1.69,5.69 6.23,7.77 11,7.77 6.92,0 10.3,-4.69 10.3,-8.77 0,-3.77 -1.15,-7.31 -7.53,-12.3 l -3.54,-2.77 c -8.46,-6.62 -11.38,-12 -11.38,-18.23 0,-8.46 7.07,-14.54 17.76,-14.54 a 37.14,37.14 0 0 1 10.23,1.31 c 0.69,0.15 1.08,0.39 1.08,0.92 0,1 -0.31,3.23 -0.31,9.23 0,1.69 -0.23,2.31 -0.84,2.31 -0.61,0 -0.77,-0.46 -0.77,-1.38 a 9.34,9.34 0 0 0 -2,-5.08 c -1.16,-1.46 -3.39,-3.77 -8.39,-3.77 -5.69,0 -9.15,3.31 -9.15,7.92 0,3.54 1.77,6.23 8.15,11.08 l 2.16,1.61 c 9.3,7 12.61,12.31 12.61,19.61 a 15.5,15.5 0 0 1 -7.23,13.39 22.24,22.24 0 0 1 -12.23,3.15 26.68,26.68 0 0 1 -11.23,-2 z"
         id="path5388"
         style="fill:#ff9e1b;fill-opacity:1" />
      <path
         class="cls-4"
         d="m 1760.68,895.57 c -0.38,0 -0.53,0.16 -0.69,0.62 l -4.15,10.53 a 15,15 0 0 0 -1.16,4.69 c 0,1.39 0.7,2.39 3.08,2.39 h 1.15 c 0.93,0 1.16,0.15 1.16,0.61 0,0.62 -0.46,0.77 -1.31,0.77 -2.46,0 -5.77,-0.23 -8.15,-0.23 -0.85,0 -5.08,0.23 -9.08,0.23 -1,0 -1.46,-0.15 -1.46,-0.77 0,-0.46 0.31,-0.61 0.93,-0.61 a 22.45,22.45 0 0 0 2.38,-0.16 c 3.54,-0.46 5,-3.07 6.54,-6.92 l 19.3,-47.68 c 0.92,-2.23 1.38,-3.08 2.15,-3.08 0.77,0 1.16,0.7 1.93,2.46 1.84,4.23 14.15,35 19.07,46.69 2.92,6.92 5.15,8 6.77,8.38 a 16.87,16.87 0 0 0 3.23,0.31 c 0.61,0 1,0.08 1,0.61 0,0.53 -0.69,0.77 -3.54,0.77 -2.85,0 -8.38,0 -14.54,-0.15 -1.38,-0.08 -2.3,-0.08 -2.3,-0.62 0,-0.54 0.3,-0.61 1.07,-0.69 a 1.26,1.26 0 0 0 0.7,-1.77 l -6.16,-15.84 a 0.74,0.74 0 0 0 -0.77,-0.54 z m 15.69,-3.84 c 0.39,0 0.46,-0.23 0.39,-0.47 l -6.92,-18.92 c -0.08,-0.3 -0.16,-0.69 -0.39,-0.69 -0.23,0 -0.38,0.39 -0.46,0.69 l -7.08,18.85 c -0.07,0.31 0,0.54 0.31,0.54 z"
         id="path5390"
         style="fill:#ff9e1b;fill-opacity:1" />
      <path
         class="cls-4"
         d="m 1815.75,904.72 c 0.16,6 1.16,8 2.7,8.54 a 12.2,12.2 0 0 0 4,0.54 c 0.84,0 1.3,0.15 1.3,0.61 0,0.62 -0.69,0.77 -1.77,0.77 -5,0 -8.07,-0.23 -9.53,-0.23 -0.69,0 -4.31,0.23 -8.31,0.23 -1,0 -1.69,-0.07 -1.69,-0.77 0,-0.46 0.46,-0.61 1.23,-0.61 a 13.56,13.56 0 0 0 3.46,-0.39 c 2,-0.61 2.31,-2.84 2.39,-9.53 l 0.69,-45.3 c 0,-1.54 0.23,-2.62 1,-2.62 0.77,0 1.53,1 2.84,2.39 0.93,1 12.62,13.3 23.84,24.45 5.23,5.23 15.62,16.31 16.92,17.54 h 0.39 l -0.77,-34.53 c -0.08,-4.69 -0.77,-6.15 -2.62,-6.92 a 12.3,12.3 0 0 0 -4.07,-0.47 c -0.92,0 -1.23,-0.23 -1.23,-0.69 0,-0.46 0.84,-0.69 2,-0.69 4,0 7.69,0.23 9.3,0.23 0.85,0 3.77,-0.23 7.54,-0.23 1,0 1.77,0.08 1.77,0.69 0,0.61 -0.46,0.69 -1.39,0.69 a 8,8 0 0 0 -2.3,0.24 c -2.16,0.61 -2.77,2.23 -2.85,6.53 l -0.84,48.53 c 0,1.69 -0.31,2.39 -1,2.39 -0.85,0 -1.77,-0.85 -2.62,-1.7 -4.84,-4.61 -14.69,-14.69 -22.69,-22.61 -8.38,-8.3 -16.92,-17.69 -18.3,-19.15 h -0.23 z"
         id="path5392"
         style="fill:#ff9e1b;fill-opacity:1" />
      <path
         class="cls-4"
         d="m 1884.29,879.34 c 0,-11.69 0,-13.84 -0.16,-16.3 -0.15,-2.62 -0.77,-3.85 -3.3,-4.38 a 15.31,15.31 0 0 0 -3,-0.24 c -0.85,0 -1.31,-0.15 -1.31,-0.69 0,-0.54 0.54,-0.69 1.69,-0.69 4.08,0 8.92,0.23 11.08,0.23 2.38,0 7.22,-0.23 11.84,-0.23 9.61,0 22.46,0 30.84,8.77 a 27.49,27.49 0 0 1 7.46,19.53 30.58,30.58 0 0 1 -8.38,21.46 c -3.54,3.61 -11.54,9.08 -25.77,9.08 -2.77,0 -5.92,-0.24 -8.84,-0.47 -2.92,-0.23 -5.62,-0.46 -7.54,-0.46 -0.85,0 -2.54,0 -4.38,0.08 -1.84,0.08 -3.77,0.15 -5.31,0.15 -1,0 -1.54,-0.23 -1.54,-0.77 0,-0.38 0.31,-0.61 1.23,-0.61 a 12.71,12.71 0 0 0 2.77,-0.31 c 1.54,-0.31 1.92,-2 2.23,-4.23 0.39,-3.23 0.39,-9.3 0.39,-16.38 z m 9.61,8.46 c 0,8.16 0.08,14.08 0.15,15.54 0.08,1.92 0.23,5 0.85,5.84 1,1.47 4,3.08 10.07,3.08 7.85,0 13.08,-1.54 17.69,-5.54 4.93,-4.23 6.46,-11.23 6.46,-19.15 0,-9.76 -4.07,-16.07 -7.38,-19.22 -7.07,-6.77 -15.84,-7.7 -21.84,-7.7 a 20.94,20.94 0 0 0 -5,0.54 1.4,1.4 0 0 0 -0.92,1.54 c -0.08,2.62 -0.08,9.31 -0.08,15.38 z"
         id="path5394"
         style="fill:#ff9e1b;fill-opacity:1" />
      <path
         class="cls-4"
         d="m 1955.51,879.34 c 0,-11.69 0,-13.84 -0.15,-16.3 -0.16,-2.62 -0.77,-3.85 -3.31,-4.38 a 15.24,15.24 0 0 0 -3,-0.24 c -0.85,0 -1.31,-0.15 -1.31,-0.69 0,-0.54 0.54,-0.69 1.69,-0.69 2.08,0 4.31,0.08 6.23,0.08 1.92,0 3.77,0.15 4.85,0.15 2.46,0 17.76,0 19.22,-0.08 a 28,28 0 0 0 3.31,-0.46 8.21,8.21 0 0 1 1.23,-0.31 c 0.39,0 0.46,0.31 0.46,0.7 a 50.14,50.14 0 0 0 -0.61,5 c -0.08,0.77 -0.23,4.15 -0.39,5.07 -0.07,0.39 -0.23,0.85 -0.76,0.85 -0.53,0 -0.7,-0.39 -0.7,-1.08 a 8.14,8.14 0 0 0 -0.46,-2.77 c -0.54,-1.38 -1.31,-2.3 -5.15,-2.77 -1.31,-0.15 -9.38,-0.3 -10.92,-0.3 -0.39,0 -0.54,0.23 -0.54,0.77 v 19.45 c 0,0.54 0.08,0.85 0.54,0.85 1.69,0 10.53,0 12.3,-0.15 1.77,-0.15 3,-0.39 3.69,-1.16 0.54,-0.61 0.85,-1 1.24,-1 0.39,0 0.53,0.16 0.53,0.62 0,0.46 -0.3,1.69 -0.61,5.61 -0.08,1.54 -0.31,4.62 -0.31,5.15 0,0.53 0,1.47 -0.69,1.47 a 0.61,0.61 0 0 1 -0.69,-0.7 20.9,20.9 0 0 0 -0.31,-2.77 c -0.39,-1.53 -1.46,-2.69 -4.31,-3 -1.46,-0.16 -9.07,-0.24 -10.92,-0.24 -0.38,0 -0.46,0.31 -0.46,0.77 v 6.08 c 0,2.61 -0.08,9.69 0,11.92 0.15,5.31 1.38,6.46 9.23,6.46 2,0 5.23,0 7.23,-0.92 2,-0.92 2.92,-2.54 3.46,-5.69 0.15,-0.85 0.31,-1.16 0.85,-1.16 0.54,0 0.61,0.62 0.61,1.39 a 59.27,59.27 0 0 1 -1,8.53 c -0.54,2 -1.23,2 -4.15,2 -5.77,0 -10,-0.15 -13.31,-0.23 -3.31,-0.08 -5.69,-0.23 -8,-0.23 -0.84,0 -2.53,0 -4.38,0.08 -1.85,0.08 -3.77,0.15 -5.31,0.15 -1,0 -1.54,-0.23 -1.54,-0.77 0,-0.38 0.31,-0.61 1.24,-0.61 a 12.69,12.69 0 0 0 2.76,-0.31 c 1.54,-0.31 1.93,-2 2.23,-4.23 0.39,-3.23 0.39,-9.3 0.39,-16.38 z"
         id="path5396"
         style="fill:#ff9e1b;fill-opacity:1" />
      <path
         class="cls-4"
         d="m 2004.12,879.34 c 0,-11.69 0,-13.84 -0.16,-16.3 -0.15,-2.62 -0.77,-3.85 -3.3,-4.38 a 15.31,15.31 0 0 0 -3,-0.24 c -0.85,0 -1.31,-0.15 -1.31,-0.69 0,-0.54 0.54,-0.69 1.69,-0.69 4.08,0 8.92,0.23 10.54,0.23 2.61,0 8.46,-0.23 10.84,-0.23 4.85,0 10,0.46 14.15,3.31 a 13.3,13.3 0 0 1 5.23,10.53 c 0,5.69 -2.38,10.92 -10.15,17.23 6.85,8.62 12.15,15.46 16.69,20.23 4.31,4.46 7.46,5 8.61,5.23 a 12.54,12.54 0 0 0 2.16,0.23 c 0.61,0 0.92,0.23 0.92,0.61 0,0.62 -0.54,0.77 -1.46,0.77 h -7.31 c -4.3,0 -6.23,-0.38 -8.23,-1.46 -3.3,-1.77 -6.23,-5.38 -10.53,-11.3 -3.08,-4.23 -6.62,-9.46 -7.62,-10.62 a 1.6,1.6 0 0 0 -1.38,-0.54 l -6.69,-0.15 c -0.39,0 -0.62,0.15 -0.62,0.62 v 1.07 c 0,7.16 0,13.23 0.39,16.46 0.23,2.23 0.69,3.92 3,4.23 a 36.23,36.23 0 0 0 3.77,0.31 c 0.61,0 0.92,0.23 0.92,0.61 0,0.54 -0.54,0.77 -1.54,0.77 -4.46,0 -10.15,-0.23 -11.3,-0.23 -1.47,0 -6.31,0.23 -9.39,0.23 -1,0 -1.54,-0.23 -1.54,-0.77 0,-0.38 0.31,-0.61 1.23,-0.61 a 12.71,12.71 0 0 0 2.77,-0.31 c 1.54,-0.31 1.93,-2 2.23,-4.23 0.39,-3.23 0.39,-9.3 0.39,-16.38 z m 9.07,6.08 c 0,0.85 0.16,1.15 0.7,1.38 a 20.17,20.17 0 0 0 5.84,0.77 c 3.08,0 4.08,-0.3 5.46,-1.3 2.31,-1.7 4.54,-5.23 4.54,-11.54 0,-10.92 -7.23,-14.08 -11.77,-14.08 a 16.79,16.79 0 0 0 -4.07,0.31 c -0.54,0.16 -0.7,0.46 -0.7,1.08 z"
         id="path5398"
         style="fill:#ff9e1b;fill-opacity:1" />
      <path
         class="cls-4"
         d="m 2056.8,914.26 c -1.23,-0.54 -1.46,-0.92 -1.46,-2.61 0,-4.23 0.31,-8.85 0.39,-10.08 0.08,-1.23 0.31,-2 0.92,-2 0.61,0 0.77,0.69 0.77,1.31 a 16.46,16.46 0 0 0 0.69,3.92 c 1.69,5.69 6.23,7.77 11,7.77 6.92,0 10.31,-4.69 10.31,-8.77 0,-3.77 -1.16,-7.31 -7.54,-12.3 l -3.54,-2.77 c -8.46,-6.62 -11.38,-12 -11.38,-18.23 C 2057,862 2064,856 2074.72,856 a 37.14,37.14 0 0 1 10.23,1.31 c 0.7,0.15 1.08,0.39 1.08,0.92 0,1 -0.31,3.23 -0.31,9.23 0,1.69 -0.23,2.31 -0.84,2.31 -0.61,0 -0.77,-0.46 -0.77,-1.38 a 9.34,9.34 0 0 0 -2,-5.08 c -1.16,-1.46 -3.39,-3.77 -8.39,-3.77 -5.69,0 -9.15,3.31 -9.15,7.92 0,3.54 1.77,6.23 8.15,11.08 l 2.16,1.61 c 9.3,7 12.61,12.31 12.61,19.61 a 15.5,15.5 0 0 1 -7.23,13.39 22.22,22.22 0 0 1 -12.23,3.15 26.68,26.68 0 0 1 -11.23,-2.04 z"
         id="path5400"
         style="fill:#ff9e1b;fill-opacity:1" />
      <path
         class="cls-4"
         d="m 2097.42,886.11 c 0,-13.15 8.69,-30.15 31.76,-30.15 19.15,0 31.07,11.16 31.07,28.77 0,17.61 -12.31,31.53 -31.84,31.53 -22.07,0 -30.99,-16.54 -30.99,-30.15 z m 52.06,1.46 c 0,-17.22 -9.92,-27.91 -22.53,-27.91 -8.85,0 -18.92,4.92 -18.92,24.07 0,16 8.84,28.68 23.61,28.68 5.36,0 17.84,-2.61 17.84,-24.84 z"
         id="path5402"
         style="fill:#ff9e1b;fill-opacity:1" />
      <path
         class="cls-4"
         d="m 2180.64,904.72 c 0.15,6 1.15,8 2.69,8.54 a 12.27,12.27 0 0 0 4,0.54 c 0.84,0 1.31,0.15 1.31,0.61 0,0.62 -0.7,0.77 -1.77,0.77 -5,0 -8.08,-0.23 -9.54,-0.23 -0.69,0 -4.31,0.23 -8.31,0.23 -1,0 -1.69,-0.07 -1.69,-0.77 0,-0.46 0.46,-0.61 1.23,-0.61 a 13.51,13.51 0 0 0 3.46,-0.39 c 2,-0.61 2.31,-2.84 2.39,-9.53 l 0.69,-45.3 c 0,-1.54 0.23,-2.62 1,-2.62 0.77,0 1.54,1 2.84,2.39 0.93,1 12.62,13.3 23.85,24.45 5.23,5.23 15.61,16.31 16.92,17.54 h 0.38 l -0.77,-34.53 c -0.07,-4.69 -0.77,-6.15 -2.61,-6.92 a 12.36,12.36 0 0 0 -4.08,-0.47 c -0.92,0 -1.23,-0.23 -1.23,-0.69 0,-0.46 0.85,-0.69 2,-0.69 4,0 7.69,0.23 9.31,0.23 0.84,0 3.76,-0.23 7.53,-0.23 1,0 1.77,0.08 1.77,0.69 0,0.61 -0.46,0.69 -1.38,0.69 a 8.07,8.07 0 0 0 -2.31,0.24 c -2.15,0.61 -2.77,2.23 -2.85,6.53 l -0.84,48.53 c 0,1.69 -0.31,2.39 -1,2.39 -0.85,0 -1.77,-0.85 -2.62,-1.7 -4.84,-4.61 -14.69,-14.69 -22.68,-22.61 -8.39,-8.3 -16.92,-17.69 -18.31,-19.15 h -0.23 z"
         id="path5404"
         style="fill:#ff9e1b;fill-opacity:1" />
      <path
         class="cls-1"
         d="m 2281.93,892.88 c 0,7.38 0,13.15 0.39,16.38 0.23,2.23 0.69,3.92 3,4.23 a 32.94,32.94 0 0 0 3.84,0.31 c 1,0 1.31,0.23 1.31,0.61 0,0.54 -0.54,0.77 -1.69,0.77 -4.85,0 -9.69,-0.23 -11.69,-0.23 -2,0 -6.85,0.23 -9.77,0.23 -1.08,0 -1.62,-0.15 -1.62,-0.77 0,-0.38 0.31,-0.61 1.16,-0.61 a 12.87,12.87 0 0 0 2.77,-0.31 c 1.53,-0.31 1.92,-2 2.23,-4.23 0.38,-3.23 0.38,-9 0.38,-16.38 v -13.54 c 0,-11.69 0,-13.84 -0.15,-16.3 -0.16,-2.62 -0.77,-3.85 -3.31,-4.38 a 15.17,15.17 0 0 0 -3,-0.24 c -0.77,0 -1.31,-0.15 -1.31,-0.61 0,-0.62 0.62,-0.77 1.77,-0.77 2,0 4.23,0.08 6.23,0.08 2,0 3.77,0.15 4.85,0.15 2.92,0 18.53,0 20.3,-0.08 a 14.45,14.45 0 0 0 3.15,-0.3 c 0.47,-0.16 0.85,-0.47 1.23,-0.47 0.38,0 0.54,0.31 0.54,0.7 0,0.39 -0.38,1.46 -0.61,3.46 -0.08,0.77 -0.23,5.3 -0.39,6.23 -0.07,0.61 -0.23,1.07 -0.77,1.07 -0.54,0 -0.69,-0.38 -0.76,-1.23 a 7.43,7.43 0 0 0 -0.47,-2.92 c -0.53,-1.08 -2.15,-2.23 -5.07,-2.31 l -11.85,-0.23 c -0.46,0 -0.69,0.23 -0.69,1.08 v 19.23 c 0,0.46 0.08,0.69 0.54,0.69 l 9.84,-0.08 c 1.31,0 2.39,0 3.47,-0.07 a 4,4 0 0 0 3.3,-1.39 c 0.39,-0.46 0.54,-0.77 1,-0.77 0.31,0 0.46,0.23 0.46,0.69 0,0.46 -0.38,2.39 -0.61,4.77 -0.16,1.54 -0.31,5.08 -0.31,5.62 0,0.54 0,1.46 -0.77,1.46 -0.46,0 -0.61,-0.54 -0.61,-1.08 a 8.69,8.69 0 0 0 -0.46,-2.38 4.53,4.53 0 0 0 -3.93,-2.77 c -1.92,-0.23 -10.07,-0.23 -11.38,-0.23 -0.38,0 -0.54,0.15 -0.54,0.69 z"
         id="path5406"
         style="fill:#004976;fill-opacity:1" />
      <path
         class="cls-1"
         d="m 2321.62,895.57 c -0.38,0 -0.54,0.16 -0.69,0.62 l -4.15,10.53 a 15,15 0 0 0 -1.16,4.69 c 0,1.39 0.69,2.39 3.08,2.39 h 1.15 c 0.92,0 1.16,0.15 1.16,0.61 0,0.62 -0.47,0.77 -1.31,0.77 -2.46,0 -5.77,-0.23 -8.15,-0.23 -0.85,0 -5.08,0.23 -9.08,0.23 -1,0 -1.46,-0.15 -1.46,-0.77 0,-0.46 0.31,-0.61 0.92,-0.61 a 22.64,22.64 0 0 0 2.39,-0.16 c 3.53,-0.46 5,-3.07 6.53,-6.92 L 2330.16,859 c 0.92,-2.23 1.38,-3.08 2.15,-3.08 0.77,0 1.15,0.7 1.92,2.46 1.85,4.23 14.16,35 19.08,46.69 2.92,6.92 5.15,8 6.76,8.38 a 17,17 0 0 0 3.24,0.31 c 0.61,0 1,0.08 1,0.61 0,0.53 -0.7,0.77 -3.54,0.77 -2.84,0 -8.39,0 -14.54,-0.15 -1.38,-0.08 -2.31,-0.08 -2.31,-0.62 0,-0.54 0.31,-0.61 1.08,-0.69 a 1.25,1.25 0 0 0 0.69,-1.77 l -6.15,-15.84 a 0.74,0.74 0 0 0 -0.77,-0.54 z m 15.69,-3.84 c 0.38,0 0.46,-0.23 0.38,-0.47 l -6.92,-18.92 c -0.07,-0.3 -0.15,-0.69 -0.38,-0.69 -0.23,0 -0.39,0.39 -0.46,0.69 l -7.08,18.85 c -0.08,0.31 0,0.54 0.31,0.54 z"
         id="path5408"
         style="fill:#004976;fill-opacity:1" />
      <path
         class="cls-1"
         d="m 2376.69,904.72 c 0.16,6 1.16,8 2.69,8.54 a 12.27,12.27 0 0 0 4,0.54 c 0.85,0 1.31,0.15 1.31,0.61 0,0.62 -0.69,0.77 -1.77,0.77 -5,0 -8.07,-0.23 -9.53,-0.23 -0.7,0 -4.31,0.23 -8.31,0.23 -1,0 -1.69,-0.07 -1.69,-0.77 0,-0.46 0.46,-0.61 1.23,-0.61 a 13.56,13.56 0 0 0 3.46,-0.39 c 2,-0.61 2.31,-2.84 2.38,-9.53 l 0.69,-45.3 c 0,-1.54 0.24,-2.62 1,-2.62 0.76,0 1.54,1 2.85,2.39 0.92,1 12.61,13.3 23.84,24.45 5.23,5.23 15.61,16.31 16.92,17.54 h 0.39 l -0.77,-34.53 c -0.08,-4.69 -0.77,-6.15 -2.62,-6.92 a 12.3,12.3 0 0 0 -4.07,-0.47 c -0.93,0 -1.23,-0.23 -1.23,-0.69 0,-0.46 0.84,-0.69 2,-0.69 4,0 7.69,0.23 9.3,0.23 0.85,0 3.77,-0.23 7.54,-0.23 1,0 1.77,0.08 1.77,0.69 0,0.61 -0.46,0.69 -1.39,0.69 a 8,8 0 0 0 -2.3,0.24 c -2.16,0.61 -2.77,2.23 -2.85,6.53 l -0.85,48.53 c 0,1.69 -0.3,2.39 -1,2.39 -0.7,0 -1.76,-0.85 -2.61,-1.7 -4.85,-4.61 -14.69,-14.69 -22.69,-22.61 -8.38,-8.3 -16.92,-17.69 -18.3,-19.15 h -0.23 z"
         id="path5410"
         style="fill:#004976;fill-opacity:1" />
      <path
         class="cls-1"
         d="m 2441,914.26 c -1.23,-0.54 -1.46,-0.92 -1.46,-2.61 0,-4.23 0.31,-8.85 0.39,-10.08 0.08,-1.23 0.3,-2 0.92,-2 0.62,0 0.77,0.69 0.77,1.31 a 16.46,16.46 0 0 0 0.69,3.92 c 1.69,5.69 6.23,7.77 11,7.77 6.92,0 10.3,-4.69 10.3,-8.77 0,-3.77 -1.15,-7.31 -7.53,-12.3 l -3.54,-2.77 c -8.46,-6.62 -11.38,-12 -11.38,-18.23 0,-8.46 7.07,-14.54 17.76,-14.54 a 37.14,37.14 0 0 1 10.23,1.31 c 0.69,0.15 1.08,0.39 1.08,0.92 0,1 -0.31,3.23 -0.31,9.23 0,1.69 -0.23,2.31 -0.84,2.31 -0.61,0 -0.77,-0.46 -0.77,-1.38 a 9.34,9.34 0 0 0 -2,-5.08 c -1.16,-1.46 -3.39,-3.77 -8.39,-3.77 -5.69,0 -9.15,3.31 -9.15,7.92 0,3.54 1.77,6.23 8.15,11.08 l 2.16,1.61 c 9.3,7 12.61,12.31 12.61,19.61 a 15.5,15.5 0 0 1 -7.23,13.39 22.24,22.24 0 0 1 -12.23,3.15 26.68,26.68 0 0 1 -11.23,-2 z"
         id="path5412"
         style="fill:#004976;fill-opacity:1" />
      <path
         class="cls-1"
         d="m 2490,879.34 c 0,-11.69 0,-13.84 -0.16,-16.3 -0.15,-2.62 -0.92,-3.92 -2.61,-4.31 a 11,11 0 0 0 -2.77,-0.31 c -0.77,0 -1.23,-0.15 -1.23,-0.76 0,-0.61 0.61,-0.62 1.84,-0.62 2.93,0 7.77,0.23 10,0.23 1.93,0 6.46,-0.23 9.39,-0.23 1,0 1.61,0.15 1.61,0.62 0,0.47 -0.46,0.76 -1.23,0.76 a 12.59,12.59 0 0 0 -2.31,0.24 c -2.07,0.38 -2.69,1.69 -2.84,4.38 -0.16,2.46 -0.16,4.61 -0.16,16.3 v 13.54 c 0,7.46 0,13.54 0.31,16.84 0.23,2.08 0.77,3.46 3.08,3.77 a 33.1,33.1 0 0 0 3.92,0.31 c 0.85,0 1.23,0.23 1.23,0.61 0,0.54 -0.61,0.77 -1.46,0.77 -5.08,0 -9.92,-0.23 -12,-0.23 -1.77,0 -6.61,0.23 -9.69,0.23 -1,0 -1.54,-0.23 -1.54,-0.77 0,-0.38 0.31,-0.61 1.23,-0.61 a 12.71,12.71 0 0 0 2.77,-0.31 c 1.54,-0.31 2,-1.61 2.23,-3.84 0.39,-3.23 0.39,-9.31 0.39,-16.77 z"
         id="path5414"
         style="fill:#004976;fill-opacity:1" />
      <path
         class="cls-1"
         d="m 2535,861.35 -11.46,0.3 c -4.46,0.16 -6.31,0.54 -7.46,2.23 a 9.31,9.31 0 0 0 -1.31,2.7 c -0.15,0.61 -0.38,0.92 -0.84,0.92 -0.46,0 -0.69,-0.38 -0.69,-1.23 0,-1.23 1.46,-8.23 1.61,-8.85 0.23,-1 0.46,-1.46 0.92,-1.46 0.62,0 1.39,0.77 3.31,0.93 2.23,0.23 5.15,0.38 7.69,0.38 h 30.46 a 37.44,37.44 0 0 0 5.3,-0.38 19.44,19.44 0 0 1 2.08,-0.39 c 0.54,0 0.62,0.46 0.62,1.62 0,1.61 -0.23,6.92 -0.23,8.92 -0.08,0.77 -0.24,1.23 -0.7,1.23 -0.61,0 -0.77,-0.39 -0.84,-1.54 l -0.08,-0.85 c -0.15,-2 -2.23,-4.15 -9.08,-4.3 l -9.69,-0.23 v 31.53 c 0,7.08 0,13.15 0.39,16.46 0.23,2.15 0.69,3.84 3,4.15 a 33.1,33.1 0 0 0 3.92,0.31 c 0.85,0 1.23,0.23 1.23,0.61 0,0.54 -0.61,0.77 -1.46,0.77 -5.08,0 -9.92,-0.23 -12.07,-0.23 -1.77,0 -6.62,0.23 -9.7,0.23 -1,0 -1.53,-0.23 -1.53,-0.77 0,-0.38 0.3,-0.61 1.23,-0.61 a 12.87,12.87 0 0 0 2.77,-0.31 c 1.53,-0.31 2,-2 2.23,-4.23 0.38,-3.23 0.38,-9.3 0.38,-16.38 z"
         id="path5416"
         style="fill:#004976;fill-opacity:1" />
      <path
         class="cls-1"
         d="m 2579.36,879.34 c 0,-11.69 0,-13.84 -0.15,-16.3 -0.16,-2.62 -0.77,-3.85 -3.31,-4.38 a 15.17,15.17 0 0 0 -3,-0.24 c -0.84,0 -1.31,-0.15 -1.31,-0.69 0,-0.54 0.54,-0.69 1.7,-0.69 2.07,0 4.3,0.08 6.23,0.08 1.93,0 3.76,0.15 4.84,0.15 2.46,0 17.77,0 19.23,-0.08 a 28.06,28.06 0 0 0 3.3,-0.46 8,8 0 0 1 1.24,-0.31 c 0.38,0 0.46,0.31 0.46,0.7 a 48.07,48.07 0 0 0 -0.62,5 c -0.08,0.77 -0.23,4.15 -0.38,5.07 -0.08,0.39 -0.23,0.85 -0.77,0.85 -0.54,0 -0.69,-0.39 -0.69,-1.08 a 8.18,8.18 0 0 0 -0.47,-2.77 c -0.53,-1.38 -1.3,-2.3 -5.15,-2.77 -1.31,-0.15 -9.38,-0.3 -10.92,-0.3 -0.38,0 -0.54,0.23 -0.54,0.77 v 19.45 c 0,0.54 0.08,0.85 0.54,0.85 1.69,0 10.54,0 12.31,-0.15 1.77,-0.15 3,-0.39 3.69,-1.16 0.54,-0.61 0.84,-1 1.23,-1 0.39,0 0.54,0.16 0.54,0.62 0,0.46 -0.31,1.69 -0.62,5.61 -0.08,1.54 -0.31,4.62 -0.31,5.15 0,0.53 0,1.47 -0.69,1.47 a 0.61,0.61 0 0 1 -0.69,-0.7 20.9,20.9 0 0 0 -0.31,-2.77 c -0.38,-1.53 -1.46,-2.69 -4.3,-3 -1.47,-0.16 -9.08,-0.24 -10.93,-0.24 -0.38,0 -0.46,0.31 -0.46,0.77 v 6.08 c 0,2.61 -0.07,9.69 0,11.92 0.16,5.31 1.39,6.46 9.23,6.46 2,0 5.23,0 7.23,-0.92 2,-0.92 2.92,-2.54 3.46,-5.69 0.16,-0.85 0.31,-1.16 0.85,-1.16 0.54,0 0.61,0.62 0.61,1.39 a 59.27,59.27 0 0 1 -1,8.53 c -0.54,2 -1.23,2 -4.15,2 -5.77,0 -10,-0.15 -13.31,-0.23 -3.31,-0.08 -5.69,-0.23 -8,-0.23 -0.85,0 -2.54,0 -4.39,0.08 -1.85,0.08 -3.77,0.15 -5.3,0.15 -1,0 -1.54,-0.23 -1.54,-0.77 0,-0.38 0.31,-0.61 1.23,-0.61 a 12.87,12.87 0 0 0 2.77,-0.31 c 1.54,-0.31 1.92,-2 2.23,-4.23 0.38,-3.23 0.38,-9.3 0.38,-16.38 z"
         id="path5418"
         style="fill:#004976;fill-opacity:1" />
      <polygon
         class="cls-4"
         points="295.17,307.38 306.43,437.4 796.01,0 "
         id="polygon5420"
         style="fill:#ffb549;fill-opacity:1" />
      <path
         id="polygon5422"
         style="display:inline;fill:#4698cb"
         class="cls-5"
         d="M 279.61,508.25 802.34,40.16 377.2309,773.1107 36.73,952.57 0,532.71 267.52,368.64 Z" />
      <polygon
         class="cls-1"
         points="36.73,952.57 456.59,915.84 802.34,40.16 "
         id="polygon5424"
         style="display:inline;fill:#004976;fill-opacity:1" />
    </g>
  </g>
</svg>
