<?xml version="1.0" encoding="utf-8"?>
<!-- Generator: Adobe Illustrator 14.0.0, SVG Export Plug-In . SVG Version: 6.00 Build 43363)  -->
<!DOCTYPE svg PUBLIC "-//W3C//DTD SVG 1.1//EN" "http://www.w3.org/Graphics/SVG/1.1/DTD/svg11.dtd">
<svg version="1.1" id="Layer_1" xmlns="http://www.w3.org/2000/svg" xmlns:xlink="http://www.w3.org/1999/xlink" x="0px" y="0px"
	 width="1200px" height="1200px" viewBox="0 0 1200 1200" enable-background="new 0 0 1200 1200" xml:space="preserve">
<g fill="white">
	<path fill-rule="evenodd" clip-rule="evenodd" d="M617.648,54.884c-0.938,5.201,3.076,5.456,2.843,9.956
		c-14.221,0-28.442,0-42.665,0C584.208,47.699,600.896,53.548,617.648,54.884z"/>
	<path fill-rule="evenodd" clip-rule="evenodd" d="M583.515,71.95c7.603-3.3,21.319-0.488,31.289-1.422
		c-3.029,3.182-10.29,9.556-5.69,15.644c-3.365,3.271-12.763,0.509-18.487,1.422C591.062,79.572,590.343,72.707,583.515,71.95z"/>
	<path fill-rule="evenodd" clip-rule="evenodd" d="M583.515,94.704c10.43,0,20.858,0,31.289,0c0.195,2.649,0.935,4.753,2.845,5.688
		c-4.242,1.923-7.476,4.851-9.956,8.534c5.337,59.195-0.42,113.683,2.844,170.659c-7.584,0-15.169,0-22.755,0
		c3.508-56.816-2.241-112.175,2.846-169.238c-0.551-5.612-5.781-6.544-8.533-9.955C581.913,97.842,583.834,97.394,583.515,94.704z"
		/>
	<path fill-rule="evenodd" clip-rule="evenodd" d="M574.983,204.21c0,6.637,0,13.274,0,19.911
		c-94.485,6.489-160.764,41.183-214.747,88.174c-5.593-3.414-8.628-9.385-14.222-12.8
		C402.744,248.142,474.866,212.178,574.983,204.21z"/>
	<path fill-rule="evenodd" clip-rule="evenodd" d="M852.304,298.074c-1.573,6.959-8.634,8.432-11.378,14.221
		c-56.661-44.784-120.71-82.186-216.168-88.174c-2.86-4.251-0.805-13.418-1.422-19.911
		C723.53,211.626,794.462,248.306,852.304,298.074z"/>
	<path fill-rule="evenodd" clip-rule="evenodd" d="M284.861,242.609c0,8.059,0,16.118,0,24.176c-5.681,2.297-19.917,2.297-25.599,0
		c0.927-7.606-1.867-18.933,1.422-24.176C266.257,240.001,279.147,240.78,284.861,242.609z"/>
	<path fill-rule="evenodd" clip-rule="evenodd" d="M934.789,242.609c2.289,5.253,2.289,18.923,0,24.176
		c-5.681,2.297-19.918,2.297-25.599,0C903.228,245.055,916.278,235.169,934.789,242.609z"/>
	<path fill-rule="evenodd" clip-rule="evenodd" d="M290.55,262.52c33.553,29.97,64.006,63.041,96.707,93.862
		c-2.5,6.034-6.766,10.3-12.8,12.8c-31.169-32.354-62.931-64.116-95.285-95.285c1.059-3.207,7.977-0.556,11.377-1.422
		C290.55,269.156,290.55,265.838,290.55,262.52z"/>
	<path fill-rule="evenodd" clip-rule="evenodd" d="M902.08,262.52c5.114,2.471,0.637,14.532,12.799,9.955
		c-16.58,22.164-47.137,47.938-72.531,72.53c-11.057,10.708-23.457,33.913-34.131,14.221
		C837.254,324.74,871.858,295.822,902.08,262.52z"/>
	<path fill-rule="evenodd" clip-rule="evenodd" d="M613.38,286.697c3.863,5.36-6.396,8.186-1.422,14.221
		c13.767,6.632,16.459-10.072,27.022-11.377c-0.906,3.254-2.821,8.579,0,11.377c18.354,2.978,35.973,6.691,45.509,18.488
		c2.115-2.299-0.94-6.844,2.843-9.955c22.833-10.644,23.365,22.332,7.113,25.599c-17.607,3.538-21.999-14.542-35.556-18.489
		c-2.553,4.559-0.608,13.614-5.688,15.644c-7.188-19.635-45.154-13.829-35.553,12.799c-5.251,11.342-16.458,16.729-17.067,32.71
		c-5.827-11.238-11.068-23.063-19.91-31.288c10.488-26.452-27.323-35.255-34.132-14.221c-5.085-2.026-6.335-7.887-5.689-15.644
		c-14.867,2.525-19.653,23.688-38.398,18.489c-16.204-4.495-11.495-39.265,9.954-24.177c0.439,3.325,2.785,5.875,0,8.533
		c9.798-5.855,24.411-19.196,46.932-17.066c1.752-4.022,1.752-8.778,0-12.8c11.709,1.565,10.642,15.906,27.021,12.8
		c4.79-6.289-4.257-10.327-1.422-14.222C591.82,285.046,604.193,287.465,613.38,286.697z"/>
	<path fill-rule="evenodd" clip-rule="evenodd" d="M464.054,337.894c-19.381,7.64-34.488,19.554-46.932,34.131
		c-0.31,13.111,4.898,20.701,5.688,32.71c-12.717-0.469-21.443-7.756-31.287-5.688c-17.833,3.746-27.057,33.103-35.554,46.932
		c-5.529-1.108-10.829-2.444-14.221-5.688c7.884-21.034,22.138-35.696,35.553-51.198c0.49-19.42,10.824-28.997,29.866-29.866
		c15.437-12.532,29.175-26.763,49.776-34.131C462.945,325.729,462.888,332.423,464.054,337.894z"/>
	<path fill-rule="evenodd" clip-rule="evenodd" d="M557.916,326.517c6.055-4.568,13.977,1.146,17.067,4.267
		c1.052,8.637-1.382,13.788-4.267,18.488c35.112,14.663,21.641,77.91,24.176,125.151c-15.583,4.663-22.381-5.366-34.131-8.534
		c10.495-8.046,12.117-36.594-4.267-39.82c17.552-6.423,18.006-36.312-2.843-39.821c11.447-9.9,6.707-30.458-4.267-36.976
		c7.429-1.578,11.105-6.908,14.221-12.799C563.64,331.223,562.968,326.679,557.916,326.517z"/>
	<path fill-rule="evenodd" clip-rule="evenodd" d="M640.4,325.095c-11.96,6.822-1.678,22.735,8.535,24.177
		c-9.32,6.585-17.035,26.638-4.268,35.554c-17.443,5.282-23.081,33.6-2.845,39.821c-13.383,2.915-15.698,32.572-4.266,39.821
		c-9.899,5.417-18.766,14.043-34.132,9.955c2.964-46.337-11.601-110.205,24.177-123.729
		C621.065,340.456,621.247,321.104,640.4,325.095z"/>
	<path fill-rule="evenodd" clip-rule="evenodd" d="M852.304,441.712c-3.847,1.368-8.129,2.3-11.378,4.266
		c-10.794-16.701-20.188-34.8-35.553-46.932c-13.913-0.64-21.707,4.841-34.132,5.688c20.264-37.713-16.312-55.662-41.244-66.841
		c1.396-4.293,2.904-8.473,4.268-12.799c24.553,5.312,37.732,21.999,54.042,35.554c15.204-2.267,29.725,8.099,28.443,27.022
		C829.3,404.985,846.357,417.794,852.304,441.712z"/>
	<path fill-rule="evenodd" clip-rule="evenodd" d="M328.948,340.738c-32.953,40.051-62.504,83.504-78.219,140.794
		c-6.35-1.236-11.646-3.524-18.488-4.267c15.708-61.562,47.443-107.097,82.486-149.327
		C321.433,330.24,324.605,336.075,328.948,340.738z"/>
	<path fill-rule="evenodd" clip-rule="evenodd" d="M967.499,477.266c-5.907,1.203-12.271,1.952-17.064,4.267
		c-20.375-53.105-44.569-102.389-81.065-139.372c3.415-5.593,9.386-8.628,12.801-14.222
		C920.598,367.729,949.154,417.392,967.499,477.266z"/>
	<path fill-rule="evenodd" clip-rule="evenodd" d="M427.078,370.604c11.093,6.921,20.213,15.815,28.442,25.599
		c-10.675,0.702-16.146,6.608-24.176,9.955C430.971,394.206,420.849,380.048,427.078,370.604z"/>
	<path fill-rule="evenodd" clip-rule="evenodd" d="M765.552,370.604c1.868,0.503,2.238,2.505,4.268,2.845
		c-1.106,12.167-4.088,22.462-7.111,32.709c-8.027-3.349-12.83-9.924-24.177-9.955C746.551,386.682,756.791,379.382,765.552,370.604
		z"/>
	<path fill-rule="evenodd" clip-rule="evenodd" d="M424.233,413.269c-3.348,8.03-9.253,13.5-9.955,24.176
		c-8.401-8.771-22.814-18.758-24.177-29.865C400.595,404.922,413.05,411.941,424.233,413.269z"/>
	<path fill-rule="evenodd" clip-rule="evenodd" d="M805.373,407.58c-3.63,13.911-17.013,18.068-22.755,29.865
		c-4.72-7.605-7.569-17.081-12.799-24.176C781.896,412.373,793.99,404.492,805.373,407.58z"/>
	<path fill-rule="evenodd" clip-rule="evenodd" d="M421.389,711.923c-11.814-14.734-28.72-24.375-41.242-38.398
		c-48.119,19.102-69.613-53.103-31.288-69.687c0-12.798,0-25.599,0-38.397c-29.532-17.311-25.387-67.594,8.533-73.952
		c7.342-1.377,15.203,2.711,21.333,1.421c16.415-3.455,28.041-29.005,42.665-35.554c-16.94-55.361,72.351-66.613,73.953-15.644
		c14.084,7.095,28.654,12.641,44.087,19.91c14.004,6.596,28.987,18.614,42.665,21.333c50.411,10.018,76.247-29.016,115.195-38.398
		c0.168-49.607,85.364-47.52,76.797,8.534c12.09,15.406,29.701,25.289,42.665,39.82c45.995-14.76,65.256,49.336,32.711,68.264
		c2.609,15.389-3.509,26.691,0,41.243c3.225,13.386,15.67,19.05,17.064,29.866c3.624,28.089-16.863,46.655-46.932,42.665
		c-16.966,11-30.686,25.252-45.509,38.397c10.433,56.271-77.007,59.007-76.797,9.956c-27.347-13.422-56.076-25.461-82.484-39.821
		c-53.595-0.5-77.753,28.437-118.04,41.242C495.83,774.109,405.455,766.92,421.389,711.923z M459.788,471.577
		c31.029-1.536,28.571-53.541-4.268-49.776C423.221,425.506,427.04,473.198,459.788,471.577z M711.51,454.511
		c11.419,36.584,73.921,2.647,42.665-27.021c-4.83-4.584-12.86-6.86-21.333-5.689C713.812,424.435,706.947,439.89,711.51,454.511z
		 M481.12,478.688c24.534,24.293,50.367,47.288,72.53,73.953c-3.65,3.935-4.779,10.389-8.533,14.221
		c-13.122-5.84-32.129-5.795-44.087-12.799c3.568-11.613,13.535-24.375,15.644-32.71c-18.284,7.789-35.828,16.318-52.62,25.599
		c-19.633-5.019-39.872-9.43-59.73-14.222c0.47,5.21-1.579,7.901-2.845,11.377c15.972,4.887,34.615,7.103,49.776,12.799
		c-11.251,8.185-22.312,16.561-31.287,27.021c8.191,11.245,22.02,16.852,29.865,28.444c-16.729,2.232-29.945,7.979-46.931,9.955
		c-1.117,5.856,2.183,7.298,1.422,12.799c20.334-4.79,40.064-10.185,61.152-14.221c15.767,9.357,31.89,18.359,51.198,24.175
		c-3.077-7.365-12.681-20.492-15.644-32.708c14.481-4.482,30.743-7.183,45.509-11.378c0.969,6.615,5.538,9.632,7.111,15.644
		c-23.585,24.771-47.761,48.946-72.53,72.531c2.697,8.678,12.737,10.017,12.799,21.332c34.405-14.896,70.263-28.341,102.395-45.509
		c-8.063,0.951-11.025-3.196-17.066-4.268c-29.924,12.74-58.885,26.445-89.596,38.398c10.824-11.333,22.182-23.603,35.554-36.976
		c11.039-11.04,30.571-23.554,35.554-36.977c4.381-11.806,0.955-18.653,7.111-27.021c5.661-7.694,14.741-9.295,22.755-15.645
		c-19.708-3.995-29.605-17.801-29.866-41.243c-21.689-24.77-51.551-48.946-69.686-72.53c28.99,12.726,58.983,24.451,86.751,38.398
		c6.041-1.071,9.004-5.219,17.066-4.267c-30.571-18.257-67.039-30.616-100.973-45.509
		C493.07,467.884,484.197,470.388,481.12,478.688z M603.426,502.865c8.063-0.952,11.026,3.196,17.065,4.267
		c27.224-14.019,57.983-24.501,85.33-38.398c-3.356-2.333-4.052-7.326-7.111-9.955C668.213,474.738,632.131,485.114,603.426,502.865
		z M762.708,474.422c12.845,4.183,34.288,44.778,44.087,22.754c-13.242-10.459-23.451-23.954-38.398-32.709
		C768.123,469.408,763.367,469.866,762.708,474.422z M424.233,467.311c-9.336,13.571-45.724,29.921-27.021,39.821
		c13.582-8.226,22.278-21.335,35.554-29.866C430.889,472.98,429.217,468.489,424.233,467.311z M697.288,555.484
		c-14.676,4.288-30.73,7.193-45.509,11.378c-1.383-6.202-4.929-10.241-7.111-15.644c22.637-25.717,49.657-47.051,71.109-73.953
		c-4.17-0.097-5.283-3.25-7.112-5.688c-12.235,9.188-23.876,21.032-36.975,34.132c-10.326,10.326-29.644,24.882-34.133,36.977
		c-4.78,12.875-1.235,19.033-7.111,27.021c-4.966,6.751-15.198,11.117-22.754,14.221c17.783,6.392,30.879,17.473,29.865,42.665
		c23.346,23.587,45.394,48.471,71.107,69.687c1.286-2.507,3.183-4.403,5.688-5.689c-16.495-26.189-49.639-47.999-69.686-75.374
		c3.648-3.936,4.78-10.39,8.533-14.222c13.358,5.603,32.637,5.287,44.087,12.799c-2.459,10.958-15.609,25.918-14.222,31.287
		c19.587-1.173,32.745-22.412,51.198-24.175c17.85-1.706,34.208,12.162,55.464,12.8c0.219-4.524,3.224-6.258,2.845-11.378
		c-14.185-4.305-30.817-6.16-44.087-11.377c9.618-8.872,19.94-17.036,29.865-25.6c-6.354-13.556-22.181-17.641-29.865-29.866
		c15.588-2.425,28.957-7.071,44.087-9.955c-0.35-4.391-1.442-8.04-2.845-11.377c-19.661,3.567-37.226,9.232-56.887,12.8
		c-15.407-9.248-35.798-21.083-52.619-24.177C687.578,532.011,693.463,542.719,697.288,555.484z M341.748,521.353
		c-10.978,47.251,64.475,39.371,48.354-2.844c-3.758-9.839-15.911-15.989-29.866-12.799
		C349.315,508.206,342.914,516.33,341.748,521.353z M802.528,529.886c0.75,32.894,51.961,32.021,51.198-1.422
		c-0.346-15.114-10.445-27.075-31.288-22.754C809.319,508.429,802.188,514.928,802.528,529.886z M574.983,536.997
		c-11.877,35.869,50.726,49.566,49.775,8.533c-0.398-17.19-14.162-27.402-32.709-22.754
		C581.552,525.405,576.509,532.387,574.983,536.997z M828.128,566.862c0,10.903,0,21.807,0,32.709
		c3.405,0.861,6.488,2.044,11.377,1.422c-0.938-11.388,1.882-26.534-1.423-35.554C837.47,568.62,831.073,566.016,828.128,566.862z
		 M358.813,600.994c4.579,0.312,6.018-2.516,11.377-1.422c0-10.903,0-21.807,0-32.709c-3.792,0-7.585,0-11.377,0
		C358.813,578.239,358.813,589.617,358.813,600.994z M574.983,612.372c-11.962,36.124,52.337,49.615,49.775,7.11
		c-0.979-16.24-14.22-26.027-32.709-21.332C581.481,600.833,576.533,607.688,574.983,612.372z M365.924,663.569
		c35.547,0.765,33.179-59.312-7.111-48.354C332.117,622.478,339.457,663.002,365.924,663.569z M802.528,637.971
		c-0.584,37.829,52.919,30.432,51.198-1.423c-0.905-16.755-16.411-26.703-34.133-21.332
		C807.802,618.791,802.671,628.734,802.528,637.971z M397.212,660.725c-1.556,0.255-7.119,8.232-7.11,8.533
		c0.109,4.086,11.589,9.109,15.644,12.8c7.797,7.101,12.796,15.718,21.333,18.489c-0.392-5.608,6.08-4.35,5.688-9.957
		C421.86,688.938,407.386,659.067,397.212,660.725z M620.491,660.725c-6.704,1.355-12.294,3.824-18.487,5.689
		c32.75,14.18,65.631,28.23,98.129,42.665c0.663-5.024,3.592-7.785,5.688-11.378C676.646,686.105,648.25,673.735,620.491,660.725z
		 M771.241,703.389c10.663-12.562,25.258-21.198,35.554-34.131c-4.29-1.397-5.632-5.745-9.955-7.11
		C790.883,675.711,748.071,692.153,771.241,703.389z M449.832,746.054c38.164,9.562,46.352-57.371,2.845-48.353
		C426.887,703.046,429.433,740.944,449.832,746.054z M744.22,746.054c28.285-7.087,18.306-55.253-14.223-48.353
		C696.569,704.793,711.537,754.244,744.22,746.054z"/>
	<path fill-rule="evenodd" clip-rule="evenodd" d="M311.882,437.445c-5.778,15.198-23.816,34.239-21.332,52.621
		c1.766,13.062,19.363,16.516,21.332,27.021c-10.551,4.144-22.435,6.956-31.287,12.799c-3.075,16.333-6.693,38.2-2.845,56.887
		c-3.855,1.833-7.897,3.479-14.221,2.844c-5.427-18.376-1.025-43.548,2.844-61.153c-9.045-11.173-7.435-37.636,8.533-39.82
		c6.019-21.476,12.9-42.091,24.176-58.309C307.126,428.928,306.975,435.717,311.882,437.445z"/>
	<path fill-rule="evenodd" clip-rule="evenodd" d="M931.945,589.617c-6.325,0.636-10.366-1.01-14.222-2.844
		c3.57-17.96,0.739-40.095-2.845-55.464c-7.51-8.134-21.194-10.093-32.709-14.222c6.644-9.475,17.246-14.99,22.755-25.599
		c-3.604-21.522-11.468-38.784-21.333-54.043c4.346-1.342,4.458-6.919,9.955-7.11c15.838,12.132,19.053,36.886,27.021,56.886
		c13.443,3.623,19.42,28.521,8.534,39.82C932.565,545.467,937.569,570.663,931.945,589.617z"/>
	<path fill-rule="evenodd" clip-rule="evenodd" d="M122.734,471.577c-4.589,6.788-13.192,9.562-19.91,14.222
		c-7.616-3.761-10.186-12.569-14.222-19.91c3.592-7.311,13.601-8.205,18.488-14.221C115.726,454.883,116.63,465.831,122.734,471.577
		z"/>
	<path fill-rule="evenodd" clip-rule="evenodd" d="M1106.872,464.467c-2.322,9.055-7.424,15.33-12.8,21.332
		c-8.497-2.88-14.468-8.287-21.333-12.799c3.617-7.76,8.626-14.129,12.799-21.332
		C1093.906,454.676,1100.182,459.779,1106.872,464.467z"/>
	<path fill-rule="evenodd" clip-rule="evenodd" d="M124.157,465.889c41.798,7.032,90.275,19.705,133.683,29.866
		c-0.009,6.153-3.301,9.024-2.844,15.644c-45.562-8.954-88.678-20.355-133.683-29.866c1.443-3.771,6.575-3.854,8.532-7.11
		C128.323,471.204,126.618,468.167,124.157,465.889z"/>
	<path fill-rule="evenodd" clip-rule="evenodd" d="M1068.473,464.467c6.446,0.63-2.999,6.501-2.845,9.955
		c2.28,2.461,5.315,4.166,8.535,5.688c-42.78,12.211-88.448,21.534-133.685,31.287c0.455-6.619-2.837-9.49-2.845-15.644
		C980.295,484.372,1026.381,476.418,1068.473,464.467z"/>
	<path fill-rule="evenodd" clip-rule="evenodd" d="M299.082,484.377c12.138,1.609,22.31,5.187,35.555,5.689
		c1.089,7.106-12.021,11.439-11.377,22.754C314.737,504.452,297.269,498.452,299.082,484.377z"/>
	<path fill-rule="evenodd" clip-rule="evenodd" d="M896.393,484.377c1.798,14.061-15.826,19.903-24.178,28.443
		c0.643-11.314-12.467-15.647-11.378-22.754C874.082,489.563,884.253,485.986,896.393,484.377z"/>
	<path fill-rule="evenodd" clip-rule="evenodd" d="M240.774,521.353c-5.744,34.234-7.875,77.288-1.422,112.352
		c-7.021,0.957-14.206,8.009-19.911,5.688c-3.982-38.462-4.933-87.448,2.844-122.306
		C228.715,518.242,235.033,519.51,240.774,521.353z"/>
	<path fill-rule="evenodd" clip-rule="evenodd" d="M974.609,517.087c11.894,33.636,8.682,84.613,4.268,123.728
		c-6.624-1.909-12.22-4.847-18.488-7.109c4.134-35.649,4.36-80.038-2.845-112.352C963.288,519.987,968.865,518.452,974.609,517.087z
		"/>
	<path fill-rule="evenodd" clip-rule="evenodd" d="M317.571,522.775c3.104,4.383,1.159,18.774,4.266,27.021
		c-11.484-3.686-23.346-6.993-35.554-9.955C288.898,526.338,308.807,530.129,317.571,522.775z"/>
	<path fill-rule="evenodd" clip-rule="evenodd" d="M876.48,522.775c9.914,6.679,29.561,3.624,32.71,17.065
		c-11.621,3.076-23.757,5.636-34.132,9.955C873.036,543.628,878.099,529.073,876.48,522.775z"/>
	<path fill-rule="evenodd" clip-rule="evenodd" d="M498.186,568.285c16.583,1.906,30.381,6.595,45.509,9.955
		c0,3.793,0,7.585,0,11.377c-15.367,3.122-29.114,7.863-45.509,9.955C496.251,590.152,496.251,577.704,498.186,568.285z"/>
	<path fill-rule="evenodd" clip-rule="evenodd" d="M700.133,568.285c2.098,8.651,2.098,22.636,0,31.287
		c-16.403-2.085-29.826-7.15-45.51-9.955c0-3.792,0-7.584,0-11.377C670.162,575.289,683.484,570.125,700.133,568.285z"/>
	<path fill-rule="evenodd" clip-rule="evenodd" d="M333.214,674.947C276.012,689.8,208.988,694.834,139.8,697.701
		c58.339-15.613,119.699-28.206,179.193-42.664C326.442,658.965,327.961,668.822,333.214,674.947z"/>
	<path fill-rule="evenodd" clip-rule="evenodd" d="M1055.672,696.279c-66.453,0.56-136.727-7.386-193.412-21.332
		c4.449-6.455,7.644-14.162,12.799-19.91C935.949,668.098,994.464,683.536,1055.672,696.279z"/>
	<path fill-rule="evenodd" clip-rule="evenodd" d="M592.049,692.012c6.605,147.194,0.969,306.682,2.843,459.359
		c-27.255-39.017-24.176-93.887-24.176-163.548c0-93.875-1.165-201.04,1.421-291.544
		C579.813,695.896,582.115,690.139,592.049,692.012z"/>
	<path fill-rule="evenodd" clip-rule="evenodd" d="M604.848,692.012c11.013-1.53,15.532,3.432,22.755,5.689
		c0,92.182,0,195.166,0,291.544c0,67.008,2.938,121.164-22.755,162.126c-3.318-148.852-0.475-303.871-1.422-455.092
		C603.304,694.261,603.191,692.251,604.848,692.012z"/>
	<path fill-rule="evenodd" clip-rule="evenodd" d="M321.837,818.585c-3.469,4.588-7.26,8.857-9.955,14.223
		c-34.182-34.082-58.941-77.589-75.374-129.419c22.313-9.942,25.009,15.792,31.287,29.867
		C282.211,765.57,304.845,796.276,321.837,818.585z"/>
	<path fill-rule="evenodd" clip-rule="evenodd" d="M963.232,703.389c-17.976,50.763-41.381,96.095-76.797,129.419
		c-2.449-5.61-5.896-10.223-9.955-14.223c27.451-33.702,51.186-71.122,66.842-116.618
		C951.074,701.326,955.009,704.503,963.232,703.389z"/>
	<path fill-rule="evenodd" clip-rule="evenodd" d="M559.338,942.313c0,6.637,0,13.272,0,19.91
		c-90.32-10.652-156.51-45.437-211.902-91.019c2.776-6.704,10.276-8.686,15.644-12.8
		C414.225,900.65,475.526,932.736,559.338,942.313z"/>
	<path fill-rule="evenodd" clip-rule="evenodd" d="M850.883,868.36c-51.185,49.321-123.794,84.786-211.902,92.441
		c0-5.689,0-11.378,0-17.065c81.83-12.031,146.022-41.704,196.258-85.331C841.521,860.653,845.224,865.484,850.883,868.36z"/>
	<path fill-rule="evenodd" clip-rule="evenodd" d="M321.837,625.171c-1.729,6.33-1.545,14.573-1.421,22.755
		c-58.499,11.789-128.394,30.536-183.459,39.82C196.503,664.808,251.244,637.063,321.837,625.171z"/>
	<path fill-rule="evenodd" clip-rule="evenodd" d="M875.059,647.926c0.123-8.182,0.309-16.425-1.421-22.755
		c71.268,11.69,125.425,40.491,186.303,62.575C1000.237,678.235,936.727,660.211,875.059,647.926z"/>
	<path fill-rule="evenodd" clip-rule="evenodd" d="M771.241,753.166c3.854-6.577,8.731-12.127,9.955-21.332
		c44.898,40.358,83.84,93.507,119.462,146.482c0.777,1.156,7.038,4.808,2.844,5.688
		C860.707,839.099,815.173,796.933,771.241,753.166z"/>
	<path fill-rule="evenodd" clip-rule="evenodd" d="M414.278,733.256c0.372,8.636,5.15,12.863,8.532,18.487
		c-41.199,42.346-92.169,94.104-132.261,130.84C328.828,829.841,363.651,773.646,414.278,733.256z"/>
	<path fill-rule="evenodd" clip-rule="evenodd" d="M427.078,757.432c7.207,3.222,12.267,8.592,21.333,9.956
		c-41.802,49.69-99.174,83.811-150.75,123.728C336.248,847.69,385.417,802.524,427.078,757.432z"/>
	<path fill-rule="evenodd" clip-rule="evenodd" d="M747.064,767.388c7.08-2.399,13.813-5.148,18.487-9.956
		c45.391,43.258,88.292,89.004,133.683,132.261C847.698,856.374,785.393,813.917,747.064,767.388z"/>
</g>
</svg>
